<svg width="48" height="48" viewBox="0 0 48 48" fill="none" xmlns="http://www.w3.org/2000/svg">
<path d="M30.5384 17.7331C30.5399 17.7361 30.5472 17.747 30.5575 17.7665C30.5831 17.8143 30.633 17.9104 30.7102 18.0458C30.8655 18.3174 31.1216 18.7453 31.4766 19.2775C32.1945 20.3544 33.271 21.7882 34.6849 23.202C37.5522 26.0694 41.2976 28.387 46 28.387V43.0537C36.0357 43.0537 28.7811 38.0379 24.3151 33.5719C24.2078 33.4646 24.1047 33.3543 24 33.2473C23.8953 33.3543 23.7922 33.4646 23.6849 33.5719C19.2189 38.0379 11.9642 43.0537 2 43.0537V28.387C6.70245 28.387 10.4478 26.0694 13.3151 23.202C14.7289 21.7882 15.8055 20.3544 16.5234 19.2775C16.8783 18.7453 17.1345 18.3174 17.2897 18.0458C17.367 17.9104 17.417 17.8143 17.4425 17.7665L17.4568 17.7426L24 4.65625L30.5384 17.7331ZM17.4449 17.7641L17.4425 17.7665L17.4496 17.7569C17.4485 17.7593 17.4462 17.7614 17.4449 17.7641ZM30.5575 17.7665L30.555 17.7641C30.5538 17.7614 30.5516 17.7593 30.5504 17.7569L30.5575 17.7665Z" fill="black"/>
</svg>
