<svg width="48" height="48" viewBox="0 0 48 48" fill="none" xmlns="http://www.w3.org/2000/svg">
<path d="M8.95605 20.4298L40.9122 22.1046L39.1734 17.7387L11.1417 16.2696L8.95605 20.4298Z" fill="black"/>
<path d="M16.7744 17.6013L31.7539 18.3864L31.3051 9.35049L18.1652 8.66186L16.7744 17.6013Z" fill="black"/>
<path d="M27.2349 12.1065L26.8561 16.089L3.76539 13.8935L4.14422 9.91103L27.2349 12.1065Z" fill="black"/>
<path d="M1.7823 28.8469C1.37851 26.3451 3.37322 24.1032 5.90494 24.2133L42.398 25.7999C44.8279 25.9056 46.6019 28.1374 46.1566 30.5285L45.1875 35.7323C44.8347 37.6265 43.1818 39 41.2551 39H6.82721C4.8641 39 3.19112 37.5754 2.87831 35.6374L1.7823 28.8469Z" fill="black"/>
</svg>
