<svg width="48" height="48" viewBox="0 0 48 48" fill="none" xmlns="http://www.w3.org/2000/svg">
<path d="M15 19H38L37 12L26.5 11V13.2727L16.417 13L15 19Z" fill="black"/>
<path d="M24.1964 14.6975L23.9568 18.6908L0.803565 17.3025L1.04317 13.3092L24.1964 14.6975Z" fill="black"/>
<path d="M1.07948 29.0765C1.03609 27.9428 1.94345 27 3.07802 27L44.922 27C46.0566 27 46.9639 27.9428 46.9205 29.0765L46.8138 31.8652C46.798 32.2782 46.6546 32.6762 46.4033 33.0044L43.1793 37.2157C42.8009 37.7101 42.2138 38 41.5913 38H7.28132C6.73213 38 6.20711 37.7742 5.82941 37.3755L1.72836 33.0466C1.39457 32.6943 1.20029 32.2326 1.18173 31.7476L1.07948 29.0765Z" fill="black"/>
<path d="M3 24L45 24L44.4211 19L25 18L5.57895 19L3 24Z" fill="black"/>
</svg>
