<svg width="48" height="48" viewBox="0 0 48 48" fill="none" xmlns="http://www.w3.org/2000/svg">
<path d="M12.2822 25.8281L9.31445 40.7646C6.7803 41.4993 4.00876 41.9395 1 41.9395V26.6064C4.46103 26.6064 7.4258 25.4053 9.92383 23.6484L12.2822 25.8281ZM38.0752 23.6475C40.5735 25.4048 43.5385 26.6064 47 26.6064V41.9395C43.9909 41.9395 41.219 41.4995 38.6846 40.7646L35.7168 25.8281L38.0752 23.6475Z" fill="black"/>
<path d="M24 6.11328L28.5142 15.9L39.2169 17.169L31.3041 24.4865L33.4046 35.0576L24 29.7933L14.5954 35.0576L16.6959 24.4865L8.7831 17.169L19.4858 15.9L24 6.11328Z" fill="black"/>
</svg>
