<svg width="48" height="48" viewBox="0 0 48 48" fill="none" xmlns="http://www.w3.org/2000/svg">
<path d="M15 20H34L33.4206 13.9842C33.1349 11.018 30.7157 8.71097 27.7393 8.56642L21.8292 8.27938C18.6149 8.12326 15.8498 10.5308 15.5622 13.736L15 20Z" fill="black"/>
<path d="M24.2588 12.5166L23.7412 16.4834L0.741211 13.4834L1.25879 9.5166L24.2588 12.5166Z" fill="black"/>
<path d="M1.21858 33.7104C1.09924 30.5926 3.59448 28 6.71455 28L41.2854 28C44.4055 28 46.9008 30.5926 46.7814 33.7104C46.6684 36.6639 44.2412 39 41.2854 39H6.71456C3.75885 39 1.33163 36.6639 1.21858 33.7104Z" fill="black"/>
<path d="M3 25H45L44.4211 20L13.625 16.4645C11.1239 16.1774 8.66123 17.2554 7.17552 19.2879L3 25Z" fill="black"/>
</svg>
