<svg width="48" height="48" viewBox="0 0 48 48" fill="none" xmlns="http://www.w3.org/2000/svg">
<path d="M17 20H36L35.4206 13.9842C35.1349 11.018 32.7157 8.71097 29.7393 8.56642L23.8292 8.27938C20.6149 8.12326 17.8498 10.5308 17.5622 13.736L17 20Z" fill="black"/>
<path d="M26.2171 12.9019L25.9078 16.8903L2.78231 15.0981L3.09158 11.1097L26.2171 12.9019Z" fill="black"/>
<path d="M1.22087 33.7701C1.10109 30.6409 3.64223 28.0574 6.77297 28.1255L41.8406 28.8878C44.6729 28.9494 46.9021 31.3256 46.7829 34.156C46.6689 36.8636 44.4407 39 41.7307 39H6.65479C3.73245 39 1.33264 36.6903 1.22087 33.7701Z" fill="black"/>
<path d="M3 25L45 26L44.4211 19L7.8388 18.0333C7.06895 18.0129 6.35581 18.4364 6.00522 19.1221L3 25Z" fill="black"/>
</svg>
