<svg width="48" height="48" viewBox="0 0 48 48" fill="none" xmlns="http://www.w3.org/2000/svg">
<path d="M13 18L35 18L33.753 9.81818L14.247 9L13 18Z" fill="black"/>
<path d="M24.2588 13.5166L23.7412 17.4834L0.741211 14.4834L1.25879 10.5166L24.2588 13.5166Z" fill="black"/>
<path d="M1.21858 32.7104C1.09924 29.5926 3.59448 27 6.71455 27L41.2854 27C44.4055 27 46.9008 29.5926 46.7814 32.7104C46.6684 35.6639 44.2412 38 41.2854 38H6.71456C3.75885 38 1.33163 35.6639 1.21858 32.7104Z" fill="black"/>
<path d="M3 24L45 24L44.4211 18H5.57895L3 24Z" fill="black"/>
</svg>
