<svg width="48" height="48" viewBox="0 0 48 48" fill="none" xmlns="http://www.w3.org/2000/svg">
<path d="M23.9995 32.1133L21.6577 36.4629L23.9995 38.1348V46.5L17.3081 44.1582L14.9663 38.8047H9.94678L5.93213 33.1162L8.27393 30.1055L5.93213 14.3799L9.94678 7.35352L15.9702 2H23.9995V32.1133ZM12.2896 31.1094L17.6431 32.7822L20.6538 30.1055L18.981 26.7598L12.2896 26.0898V31.1094Z" fill="black"/>
<path d="M24.0005 32.1133L26.3423 36.4629L24.0005 38.1348V46.5L30.6919 44.1582L33.0337 38.8047H38.0532L42.0679 33.1162L39.7261 30.1055L42.0679 14.3799L38.0532 7.35352L32.0298 2H24.0005V32.1133ZM35.7104 31.1094L30.3569 32.7822L27.3462 30.1055L29.019 26.7598L35.7104 26.0898V31.1094Z" fill="black"/>
</svg>
