<svg width="72" height="103" viewBox="0 0 72 103" fill="none" xmlns="http://www.w3.org/2000/svg">
<rect width="72" height="103" rx="8" fill="#000100"/>
<rect x="4" y="4" width="64" height="69" rx="4" fill="#E1D8D6"/>
<circle cx="36" cy="39" r="25" stroke="#000100" stroke-width="4"/>
<path d="M36 14C40.0938 14 44.0445 16.4892 47.0635 21.0176C50.0731 25.5321 52 31.8839 52 39C52 46.1161 50.0731 52.4679 47.0635 56.9824C44.0445 61.5108 40.0938 64 36 64C31.9062 64 27.9555 61.5108 24.9365 56.9824C21.9269 52.4679 20 46.1161 20 39C20 31.8839 21.9269 25.5321 24.9365 21.0176C27.9555 16.4892 31.9062 14 36 14Z" stroke="#000100" stroke-width="4"/>
<path d="M27 42C33 42 36 31 36 31C36 31 39 42 45 42" stroke="#000100" stroke-width="6"/>
<path d="M27 52C33 52 36 41 36 41C36 41 39 52 45 52" stroke="#000100" stroke-width="6"/>
<path d="M13.7068 78.768C13.7788 78.768 13.8388 78.796 13.8868 78.852C13.9428 78.9 13.9708 78.96 13.9708 79.032V80.16C13.9708 80.232 13.9428 80.292 13.8868 80.34C13.8388 80.388 13.7788 80.412 13.7068 80.412H11.4988V86.736C11.4988 86.808 11.4708 86.872 11.4148 86.928C11.3668 86.976 11.3068 87 11.2348 87H10.1068C10.0348 87 9.97484 86.976 9.92684 86.928C9.87884 86.872 9.85484 86.808 9.85484 86.736V80.412H7.64684C7.57484 80.412 7.51084 80.388 7.45484 80.34C7.40684 80.292 7.38284 80.232 7.38284 80.16V79.032C7.38284 78.96 7.40684 78.9 7.45484 78.852C7.51084 78.796 7.57484 78.768 7.64684 78.768H13.7068ZM20.406 78.768C20.478 78.768 20.546 78.792 20.61 78.84C20.682 78.888 20.73 78.944 20.754 79.008L22.482 83.304C22.506 83.368 22.526 83.452 22.542 83.556C22.566 83.652 22.578 83.736 22.578 83.808V86.736C22.578 86.808 22.55 86.872 22.494 86.928C22.446 86.976 22.386 87 22.314 87H21.186C21.114 87 21.05 86.976 20.994 86.928C20.946 86.872 20.922 86.808 20.922 86.736V85.356H17.634V86.736C17.634 86.808 17.606 86.872 17.55 86.928C17.502 86.976 17.442 87 17.37 87H16.254C16.182 87 16.118 86.976 16.062 86.928C16.014 86.872 15.99 86.808 15.99 86.736V83.808C15.99 83.736 15.998 83.652 16.014 83.556C16.038 83.452 16.062 83.368 16.086 83.304L17.802 79.008C17.834 78.944 17.882 78.888 17.946 78.84C18.018 78.792 18.09 78.768 18.162 78.768H20.406ZM17.694 83.712H20.862L19.542 80.412H19.014L17.694 83.712ZM29.8052 81.24C29.7332 81.24 29.6692 81.216 29.6132 81.168C29.5652 81.112 29.5412 81.048 29.5412 80.976V80.892C29.5412 80.756 29.4932 80.644 29.3972 80.556C29.3092 80.46 29.1972 80.412 29.0612 80.412H26.7212C26.5852 80.412 26.4732 80.46 26.3852 80.556C26.2972 80.644 26.2532 80.756 26.2532 80.892V84.876C26.2532 85.012 26.2972 85.128 26.3852 85.224C26.4732 85.312 26.5852 85.356 26.7212 85.356H29.0612C29.1972 85.356 29.3092 85.312 29.3972 85.224C29.4932 85.128 29.5412 85.012 29.5412 84.876V84.792C29.5412 84.72 29.5652 84.66 29.6132 84.612C29.6692 84.556 29.7332 84.528 29.8052 84.528H30.9212C30.9932 84.528 31.0532 84.556 31.1012 84.612C31.1572 84.66 31.1852 84.72 31.1852 84.792V84.876C31.1852 85.172 31.1292 85.448 31.0172 85.704C30.9052 85.96 30.7532 86.184 30.5612 86.376C30.3692 86.568 30.1452 86.72 29.8892 86.832C29.6332 86.944 29.3572 87 29.0612 87H26.7212C26.4332 87 26.1572 86.944 25.8932 86.832C25.6372 86.72 25.4132 86.568 25.2212 86.376C25.0292 86.184 24.8772 85.96 24.7652 85.704C24.6532 85.448 24.5972 85.172 24.5972 84.876V80.892C24.5972 80.596 24.6532 80.32 24.7652 80.064C24.8772 79.808 25.0292 79.584 25.2212 79.392C25.4132 79.2 25.6372 79.048 25.8932 78.936C26.1572 78.824 26.4332 78.768 26.7212 78.768H29.0612C29.3572 78.768 29.6332 78.824 29.8892 78.936C30.1452 79.048 30.3692 79.2 30.5612 79.392C30.7532 79.584 30.9052 79.808 31.0172 80.064C31.1292 80.32 31.1852 80.596 31.1852 80.892V80.976C31.1852 81.048 31.1572 81.112 31.1012 81.168C31.0532 81.216 30.9932 81.24 30.9212 81.24H29.8052ZM39.5284 78.768C39.6004 78.768 39.6604 78.796 39.7084 78.852C39.7644 78.9 39.7924 78.96 39.7924 79.032V80.16C39.7924 80.232 39.7644 80.292 39.7084 80.34C39.6604 80.388 39.6004 80.412 39.5284 80.412H37.3204V86.736C37.3204 86.808 37.2924 86.872 37.2364 86.928C37.1884 86.976 37.1284 87 37.0564 87H35.9284C35.8564 87 35.7964 86.976 35.7484 86.928C35.7004 86.872 35.6764 86.808 35.6764 86.736V80.412H33.4684C33.3964 80.412 33.3324 80.388 33.2764 80.34C33.2284 80.292 33.2044 80.232 33.2044 80.16V79.032C33.2044 78.96 33.2284 78.9 33.2764 78.852C33.3324 78.796 33.3964 78.768 33.4684 78.768H39.5284ZM48.2436 80.16C48.2436 80.232 48.2156 80.292 48.1596 80.34C48.1116 80.388 48.0516 80.412 47.9796 80.412H45.9276V85.356H47.9796C48.0516 85.356 48.1116 85.384 48.1596 85.44C48.2156 85.488 48.2436 85.548 48.2436 85.62V86.736C48.2436 86.808 48.2156 86.872 48.1596 86.928C48.1116 86.976 48.0516 87 47.9796 87H42.2436C42.1716 87 42.1076 86.976 42.0516 86.928C42.0036 86.872 41.9796 86.808 41.9796 86.736V85.62C41.9796 85.548 42.0036 85.488 42.0516 85.44C42.1076 85.384 42.1716 85.356 42.2436 85.356H44.2836V80.412H42.2436C42.1716 80.412 42.1076 80.388 42.0516 80.34C42.0036 80.292 41.9796 80.232 41.9796 80.16V79.032C41.9796 78.96 42.0036 78.9 42.0516 78.852C42.1076 78.796 42.1716 78.768 42.2436 78.768H47.9796C48.0516 78.768 48.1116 78.796 48.1596 78.852C48.2156 78.9 48.2436 78.96 48.2436 79.032V80.16ZM55.6268 81.24C55.5548 81.24 55.4908 81.216 55.4348 81.168C55.3868 81.112 55.3628 81.048 55.3628 80.976V80.892C55.3628 80.756 55.3148 80.644 55.2188 80.556C55.1308 80.46 55.0188 80.412 54.8828 80.412H52.5428C52.4068 80.412 52.2948 80.46 52.2068 80.556C52.1188 80.644 52.0748 80.756 52.0748 80.892V84.876C52.0748 85.012 52.1188 85.128 52.2068 85.224C52.2948 85.312 52.4068 85.356 52.5428 85.356H54.8828C55.0188 85.356 55.1308 85.312 55.2188 85.224C55.3148 85.128 55.3628 85.012 55.3628 84.876V84.792C55.3628 84.72 55.3868 84.66 55.4348 84.612C55.4908 84.556 55.5548 84.528 55.6268 84.528H56.7428C56.8148 84.528 56.8748 84.556 56.9228 84.612C56.9788 84.66 57.0068 84.72 57.0068 84.792V84.876C57.0068 85.172 56.9508 85.448 56.8388 85.704C56.7268 85.96 56.5748 86.184 56.3828 86.376C56.1908 86.568 55.9668 86.72 55.7108 86.832C55.4548 86.944 55.1788 87 54.8828 87H52.5428C52.2548 87 51.9788 86.944 51.7148 86.832C51.4588 86.72 51.2348 86.568 51.0428 86.376C50.8508 86.184 50.6988 85.96 50.5868 85.704C50.4748 85.448 50.4188 85.172 50.4188 84.876V80.892C50.4188 80.596 50.4748 80.32 50.5868 80.064C50.6988 79.808 50.8508 79.584 51.0428 79.392C51.2348 79.2 51.4588 79.048 51.7148 78.936C51.9788 78.824 52.2548 78.768 52.5428 78.768H54.8828C55.1788 78.768 55.4548 78.824 55.7108 78.936C55.9668 79.048 56.1908 79.2 56.3828 79.392C56.5748 79.584 56.7268 79.808 56.8388 80.064C56.9508 80.32 57.0068 80.596 57.0068 80.892V80.976C57.0068 81.048 56.9788 81.112 56.9228 81.168C56.8748 81.216 56.8148 81.24 56.7428 81.24H55.6268ZM64.222 81.24C64.15 81.24 64.086 81.216 64.03 81.168C63.982 81.112 63.958 81.048 63.958 80.976V80.892C63.958 80.756 63.914 80.644 63.826 80.556C63.738 80.46 63.626 80.412 63.49 80.412H61.138C61.01 80.412 60.898 80.46 60.802 80.556C60.714 80.644 60.67 80.756 60.67 80.892V81.588C60.67 81.724 60.714 81.84 60.802 81.936C60.898 82.024 61.01 82.068 61.138 82.068H63.49C63.778 82.068 64.05 82.124 64.306 82.236C64.562 82.348 64.786 82.5 64.978 82.692C65.17 82.884 65.322 83.108 65.434 83.364C65.546 83.62 65.602 83.892 65.602 84.18V84.876C65.602 85.172 65.546 85.448 65.434 85.704C65.322 85.96 65.17 86.184 64.978 86.376C64.786 86.568 64.562 86.72 64.306 86.832C64.05 86.944 63.778 87 63.49 87H61.138C60.85 87 60.578 86.944 60.322 86.832C60.066 86.72 59.842 86.568 59.65 86.376C59.458 86.184 59.306 85.96 59.194 85.704C59.082 85.448 59.026 85.172 59.026 84.876V84.792C59.026 84.72 59.05 84.66 59.098 84.612C59.154 84.556 59.218 84.528 59.29 84.528H60.406C60.478 84.528 60.538 84.556 60.586 84.612C60.642 84.66 60.67 84.72 60.67 84.792V84.876C60.67 85.012 60.714 85.128 60.802 85.224C60.898 85.312 61.01 85.356 61.138 85.356H63.49C63.626 85.356 63.738 85.312 63.826 85.224C63.914 85.128 63.958 85.012 63.958 84.876V84.18C63.958 84.044 63.914 83.932 63.826 83.844C63.738 83.756 63.626 83.712 63.49 83.712H61.138C60.85 83.712 60.578 83.656 60.322 83.544C60.066 83.432 59.842 83.28 59.65 83.088C59.458 82.896 59.306 82.672 59.194 82.416C59.082 82.152 59.026 81.876 59.026 81.588V80.892C59.026 80.596 59.082 80.32 59.194 80.064C59.306 79.808 59.458 79.584 59.65 79.392C59.842 79.2 60.066 79.048 60.322 78.936C60.578 78.824 60.85 78.768 61.138 78.768H63.49C63.778 78.768 64.05 78.824 64.306 78.936C64.562 79.048 64.786 79.2 64.978 79.392C65.17 79.584 65.322 79.808 65.434 80.064C65.546 80.32 65.602 80.596 65.602 80.892V80.976C65.602 81.048 65.578 81.112 65.53 81.168C65.482 81.216 65.422 81.24 65.35 81.24H64.222Z" fill="#E1D8D6"/>
<path d="M12.2733 91.44C12.2733 91.488 12.2546 91.528 12.2173 91.56C12.1853 91.592 12.1453 91.608 12.0973 91.608H10.7293V94.904H12.0973C12.1453 94.904 12.1853 94.9227 12.2173 94.96C12.2546 94.992 12.2733 95.032 12.2733 95.08V95.824C12.2733 95.872 12.2546 95.9147 12.2173 95.952C12.1853 95.984 12.1453 96 12.0973 96H8.27328C8.22528 96 8.18262 95.984 8.14528 95.952C8.11328 95.9147 8.09728 95.872 8.09728 95.824V95.08C8.09728 95.032 8.11328 94.992 8.14528 94.96C8.18262 94.9227 8.22528 94.904 8.27328 94.904H9.63328V91.608H8.27328C8.22528 91.608 8.18262 91.592 8.14528 91.56C8.11328 91.528 8.09728 91.488 8.09728 91.44V90.688C8.09728 90.64 8.11328 90.6 8.14528 90.568C8.18262 90.5307 8.22528 90.512 8.27328 90.512H12.0973C12.1453 90.512 12.1853 90.5307 12.2173 90.568C12.2546 90.6 12.2733 90.64 12.2733 90.688V91.44ZM17.0114 90.688C17.0114 90.64 17.0274 90.6 17.0594 90.568C17.0967 90.5307 17.1394 90.512 17.1874 90.512H17.9394C17.9874 90.512 18.0274 90.5307 18.0594 90.568C18.0967 90.6 18.1154 90.64 18.1154 90.688V95.824C18.1154 95.872 18.0967 95.9147 18.0594 95.952C18.0274 95.984 17.9874 96 17.9394 96H17.1874C17.1394 96 17.0967 95.984 17.0594 95.952C17.0274 95.9147 17.0114 95.872 17.0114 95.824V93.952L14.8194 91.984V95.824C14.8194 95.872 14.8007 95.9147 14.7634 95.952C14.7314 95.984 14.6914 96 14.6434 96H13.8994C13.8514 96 13.8087 95.984 13.7714 95.952C13.7394 95.9147 13.7234 95.872 13.7234 95.824V90.688C13.7234 90.64 13.7394 90.6 13.7714 90.568C13.8087 90.5307 13.8514 90.512 13.8994 90.512H14.6434C14.6914 90.512 14.7447 90.5253 14.8034 90.552C14.8621 90.5733 14.9101 90.6 14.9474 90.632L17.0114 92.48V90.688ZM19.6375 96C19.5895 96 19.5469 95.984 19.5095 95.952C19.4775 95.9147 19.4615 95.872 19.4615 95.824V90.688C19.4615 90.64 19.4775 90.6 19.5095 90.568C19.5469 90.5307 19.5895 90.512 19.6375 90.512H22.4375C22.6295 90.512 22.8109 90.5493 22.9815 90.624C23.1575 90.6987 23.3095 90.8 23.4375 90.928C23.5655 91.056 23.6669 91.2053 23.7415 91.376C23.8162 91.5467 23.8535 91.7307 23.8535 91.928V94.584C23.8535 94.7813 23.8162 94.9653 23.7415 95.136C23.6669 95.3067 23.5655 95.456 23.4375 95.584C23.3095 95.712 23.1575 95.8133 22.9815 95.888C22.8109 95.9627 22.6295 96 22.4375 96H19.6375ZM20.5575 94.904H22.4375C22.5282 94.904 22.6029 94.8747 22.6615 94.816C22.7202 94.752 22.7495 94.6747 22.7495 94.584V91.928C22.7495 91.8373 22.7202 91.7627 22.6615 91.704C22.6029 91.64 22.5282 91.608 22.4375 91.608H20.5575V94.904ZM26.6077 96C26.4157 96 26.2343 95.9627 26.0637 95.888C25.893 95.8133 25.7437 95.712 25.6157 95.584C25.4877 95.456 25.3863 95.3067 25.3117 95.136C25.237 94.9653 25.1997 94.7813 25.1997 94.584V90.688C25.1997 90.64 25.2157 90.6 25.2477 90.568C25.285 90.5307 25.3277 90.512 25.3757 90.512H26.1197C26.1677 90.512 26.2077 90.5307 26.2397 90.568C26.277 90.6 26.2957 90.64 26.2957 90.688V94.584C26.2957 94.6747 26.325 94.752 26.3837 94.816C26.4477 94.8747 26.5223 94.904 26.6077 94.904H28.1757C28.2663 94.904 28.341 94.8747 28.3997 94.816C28.4583 94.752 28.4877 94.6747 28.4877 94.584V90.688C28.4877 90.64 28.5037 90.6 28.5357 90.568C28.573 90.5307 28.6157 90.512 28.6637 90.512H29.4157C29.4637 90.512 29.5037 90.5307 29.5357 90.568C29.573 90.6 29.5917 90.64 29.5917 90.688V94.584C29.5917 94.7813 29.5543 94.9653 29.4797 95.136C29.405 95.3067 29.3037 95.456 29.1757 95.584C29.0477 95.712 28.8957 95.8133 28.7197 95.888C28.549 95.9627 28.3677 96 28.1757 96H26.6077ZM34.4018 92.16C34.3538 92.16 34.3111 92.144 34.2738 92.112C34.2418 92.0747 34.2258 92.032 34.2258 91.984V91.928C34.2258 91.8373 34.1964 91.7627 34.1378 91.704C34.0791 91.64 34.0044 91.608 33.9138 91.608H32.3458C32.2604 91.608 32.1858 91.64 32.1218 91.704C32.0631 91.7627 32.0338 91.8373 32.0338 91.928V92.392C32.0338 92.4827 32.0631 92.56 32.1218 92.624C32.1858 92.6827 32.2604 92.712 32.3458 92.712H33.9138C34.1058 92.712 34.2871 92.7493 34.4578 92.824C34.6284 92.8987 34.7778 93 34.9058 93.128C35.0338 93.256 35.1351 93.4053 35.2098 93.576C35.2844 93.7467 35.3218 93.928 35.3218 94.12V94.584C35.3218 94.7813 35.2844 94.9653 35.2098 95.136C35.1351 95.3067 35.0338 95.456 34.9058 95.584C34.7778 95.712 34.6284 95.8133 34.4578 95.888C34.2871 95.9627 34.1058 96 33.9138 96H32.3458C32.1538 96 31.9724 95.9627 31.8018 95.888C31.6311 95.8133 31.4818 95.712 31.3538 95.584C31.2258 95.456 31.1244 95.3067 31.0498 95.136C30.9751 94.9653 30.9378 94.7813 30.9378 94.584V94.528C30.9378 94.48 30.9538 94.44 30.9858 94.408C31.0231 94.3707 31.0658 94.352 31.1138 94.352H31.8578C31.9058 94.352 31.9458 94.3707 31.9778 94.408C32.0151 94.44 32.0338 94.48 32.0338 94.528V94.584C32.0338 94.6747 32.0631 94.752 32.1218 94.816C32.1858 94.8747 32.2604 94.904 32.3458 94.904H33.9138C34.0044 94.904 34.0791 94.8747 34.1378 94.816C34.1964 94.752 34.2258 94.6747 34.2258 94.584V94.12C34.2258 94.0293 34.1964 93.9547 34.1378 93.896C34.0791 93.8373 34.0044 93.808 33.9138 93.808H32.3458C32.1538 93.808 31.9724 93.7707 31.8018 93.696C31.6311 93.6213 31.4818 93.52 31.3538 93.392C31.2258 93.264 31.1244 93.1147 31.0498 92.944C30.9751 92.768 30.9378 92.584 30.9378 92.392V91.928C30.9378 91.7307 30.9751 91.5467 31.0498 91.376C31.1244 91.2053 31.2258 91.056 31.3538 90.928C31.4818 90.8 31.6311 90.6987 31.8018 90.624C31.9724 90.5493 32.1538 90.512 32.3458 90.512H33.9138C34.1058 90.512 34.2871 90.5493 34.4578 90.624C34.6284 90.6987 34.7778 90.8 34.9058 90.928C35.0338 91.056 35.1351 91.2053 35.2098 91.376C35.2844 91.5467 35.3218 91.7307 35.3218 91.928V91.984C35.3218 92.032 35.3058 92.0747 35.2738 92.112C35.2418 92.144 35.2018 92.16 35.1538 92.16H34.4018ZM40.8919 90.512C40.9399 90.512 40.9799 90.5307 41.0119 90.568C41.0492 90.6 41.0679 90.64 41.0679 90.688V91.44C41.0679 91.488 41.0492 91.528 41.0119 91.56C40.9799 91.592 40.9399 91.608 40.8919 91.608H39.4199V95.824C39.4199 95.872 39.4012 95.9147 39.3639 95.952C39.3319 95.984 39.2919 96 39.2439 96H38.4919C38.4439 96 38.4039 95.984 38.3719 95.952C38.3399 95.9147 38.3239 95.872 38.3239 95.824V91.608H36.8519C36.8039 91.608 36.7612 91.592 36.7239 91.56C36.6919 91.528 36.6759 91.488 36.6759 91.44V90.688C36.6759 90.64 36.6919 90.6 36.7239 90.568C36.7612 90.5307 36.8039 90.512 36.8519 90.512H40.8919ZM46.726 95.84C46.7474 95.8827 46.7474 95.92 46.726 95.952C46.7047 95.984 46.67 96 46.622 96H45.766C45.718 96 45.67 95.984 45.622 95.952C45.5794 95.92 45.5474 95.8827 45.526 95.84L44.606 93.808H43.518V95.824C43.518 95.872 43.4994 95.9147 43.462 95.952C43.43 95.984 43.39 96 43.342 96H42.59C42.542 96 42.4994 95.984 42.462 95.952C42.43 95.9147 42.414 95.872 42.414 95.824V90.688C42.414 90.64 42.43 90.6 42.462 90.568C42.4994 90.5307 42.542 90.512 42.59 90.512H45.39C45.5874 90.512 45.7714 90.5493 45.942 90.624C46.1127 90.6987 46.262 90.8 46.39 90.928C46.518 91.056 46.6194 91.2053 46.694 91.376C46.7687 91.5467 46.806 91.7307 46.806 91.928V92.392C46.806 92.552 46.7794 92.7067 46.726 92.856C46.678 93 46.6087 93.1333 46.518 93.256C46.4274 93.3733 46.318 93.4747 46.19 93.56C46.0674 93.6453 45.9314 93.7093 45.782 93.752L46.726 95.84ZM45.39 92.712C45.4807 92.712 45.5554 92.6827 45.614 92.624C45.678 92.56 45.71 92.4827 45.71 92.392V91.928C45.71 91.8373 45.678 91.7627 45.614 91.704C45.5554 91.64 45.4807 91.608 45.39 91.608H43.518V92.712H45.39ZM52.4402 91.44C52.4402 91.488 52.4215 91.528 52.3842 91.56C52.3522 91.592 52.3122 91.608 52.2642 91.608H50.8962V94.904H52.2642C52.3122 94.904 52.3522 94.9227 52.3842 94.96C52.4215 94.992 52.4402 95.032 52.4402 95.08V95.824C52.4402 95.872 52.4215 95.9147 52.3842 95.952C52.3522 95.984 52.3122 96 52.2642 96H48.4402C48.3922 96 48.3495 95.984 48.3122 95.952C48.2802 95.9147 48.2642 95.872 48.2642 95.824V95.08C48.2642 95.032 48.2802 94.992 48.3122 94.96C48.3495 94.9227 48.3922 94.904 48.4402 94.904H49.8002V91.608H48.4402C48.3922 91.608 48.3495 91.592 48.3122 91.56C48.2802 91.528 48.2642 91.488 48.2642 91.44V90.688C48.2642 90.64 48.2802 90.6 48.3122 90.568C48.3495 90.5307 48.3922 90.512 48.4402 90.512H52.2642C52.3122 90.512 52.3522 90.5307 52.3842 90.568C52.4215 90.6 52.4402 90.64 52.4402 90.688V91.44ZM58.1943 91.44C58.1943 91.488 58.1783 91.528 58.1463 91.56C58.1143 91.592 58.0743 91.608 58.0263 91.608H55.0663V92.712H57.7463C57.7943 92.712 57.8343 92.728 57.8663 92.76C57.9036 92.792 57.9223 92.832 57.9223 92.88V93.632C57.9223 93.68 57.9036 93.7227 57.8663 93.76C57.8343 93.792 57.7943 93.808 57.7463 93.808H55.0663V94.904H58.0263C58.0743 94.904 58.1143 94.9227 58.1463 94.96C58.1783 94.992 58.1943 95.032 58.1943 95.08V95.824C58.1943 95.872 58.1783 95.9147 58.1463 95.952C58.1143 95.984 58.0743 96 58.0263 96H54.1383C54.0903 96 54.0503 95.984 54.0183 95.952C53.9863 95.9147 53.9703 95.872 53.9703 95.824V90.688C53.9703 90.64 53.9863 90.6 54.0183 90.568C54.0503 90.5307 54.0903 90.512 54.1383 90.512H58.0263C58.0743 90.512 58.1143 90.5307 58.1463 90.568C58.1783 90.6 58.1943 90.64 58.1943 90.688V91.44ZM63.0846 92.16C63.0366 92.16 62.9939 92.144 62.9566 92.112C62.9246 92.0747 62.9086 92.032 62.9086 91.984V91.928C62.9086 91.8373 62.8793 91.7627 62.8206 91.704C62.7619 91.64 62.6873 91.608 62.5966 91.608H61.0286C60.9433 91.608 60.8686 91.64 60.8046 91.704C60.7459 91.7627 60.7166 91.8373 60.7166 91.928V92.392C60.7166 92.4827 60.7459 92.56 60.8046 92.624C60.8686 92.6827 60.9433 92.712 61.0286 92.712H62.5966C62.7886 92.712 62.9699 92.7493 63.1406 92.824C63.3113 92.8987 63.4606 93 63.5886 93.128C63.7166 93.256 63.8179 93.4053 63.8926 93.576C63.9673 93.7467 64.0046 93.928 64.0046 94.12V94.584C64.0046 94.7813 63.9673 94.9653 63.8926 95.136C63.8179 95.3067 63.7166 95.456 63.5886 95.584C63.4606 95.712 63.3113 95.8133 63.1406 95.888C62.9699 95.9627 62.7886 96 62.5966 96H61.0286C60.8366 96 60.6553 95.9627 60.4846 95.888C60.3139 95.8133 60.1646 95.712 60.0366 95.584C59.9086 95.456 59.8073 95.3067 59.7326 95.136C59.6579 94.9653 59.6206 94.7813 59.6206 94.584V94.528C59.6206 94.48 59.6366 94.44 59.6686 94.408C59.7059 94.3707 59.7486 94.352 59.7966 94.352H60.5406C60.5886 94.352 60.6286 94.3707 60.6606 94.408C60.6979 94.44 60.7166 94.48 60.7166 94.528V94.584C60.7166 94.6747 60.7459 94.752 60.8046 94.816C60.8686 94.8747 60.9433 94.904 61.0286 94.904H62.5966C62.6873 94.904 62.7619 94.8747 62.8206 94.816C62.8793 94.752 62.9086 94.6747 62.9086 94.584V94.12C62.9086 94.0293 62.8793 93.9547 62.8206 93.896C62.7619 93.8373 62.6873 93.808 62.5966 93.808H61.0286C60.8366 93.808 60.6553 93.7707 60.4846 93.696C60.3139 93.6213 60.1646 93.52 60.0366 93.392C59.9086 93.264 59.8073 93.1147 59.7326 92.944C59.6579 92.768 59.6206 92.584 59.6206 92.392V91.928C59.6206 91.7307 59.6579 91.5467 59.7326 91.376C59.8073 91.2053 59.9086 91.056 60.0366 90.928C60.1646 90.8 60.3139 90.6987 60.4846 90.624C60.6553 90.5493 60.8366 90.512 61.0286 90.512H62.5966C62.7886 90.512 62.9699 90.5493 63.1406 90.624C63.3113 90.6987 63.4606 90.8 63.5886 90.928C63.7166 91.056 63.8179 91.2053 63.8926 91.376C63.9673 91.5467 64.0046 91.7307 64.0046 91.928V91.984C64.0046 92.032 63.9886 92.0747 63.9566 92.112C63.9246 92.144 63.8846 92.16 63.8366 92.16H63.0846Z" fill="#E1D8D6"/>
</svg>
