<svg width="16" height="16" viewBox="0 0 16 16" fill="none" xmlns="http://www.w3.org/2000/svg">
<path d="M16 16H0V0H16V16ZM6.00781 8.99902L1.99805 9.00977L2.00195 11.0098L3.58984 11.0059L1.29297 13.3027L2.70703 14.7168L5.00293 12.4209L5 14.0068L7 14.0127L7.01074 10.002L7.0127 8.99707L6.00781 8.99902ZM8.99902 10.002L9.00977 14.0127L11.0098 14.0068L11.0068 12.4209L13.3027 14.7168L14.7168 13.3027L12.4199 11.0059L14.0078 11.0098L14.0117 9.00977L10.002 8.99902L8.99707 8.99707L8.99902 10.002ZM1.29297 2.70703L3.58887 5.00391L2.00195 5.00098L1.99902 6.00098L1.99805 7L6.00781 7.01074L7.0127 7.0127L7.00977 6.00781L6.99902 1.99707L4.99902 2.00293L5.00293 3.58887L2.70703 1.29297L1.29297 2.70703ZM11.0068 3.58887L11.0098 2.00293L9.00977 1.99707L8.99902 6.00781L8.99707 7.0127L10.002 7.01074L14.0117 7L14.0078 5L12.4199 5.00391L14.7168 2.70703L13.3027 1.29297L11.0068 3.58887Z" fill="black"/>
</svg>
