<svg width="18" height="18" viewBox="0 0 18 18" fill="none" xmlns="http://www.w3.org/2000/svg">
<path d="M11.6748 6.64258C11.6754 6.64381 11.6784 6.64827 11.6826 6.65625C11.6931 6.67582 11.7135 6.71514 11.7451 6.77051C11.8086 6.88164 11.9134 7.05668 12.0586 7.27441C12.3523 7.71495 12.7927 8.30151 13.3711 8.87988C14.5441 10.0529 16.0763 11.001 18 11.001V17.001C13.9237 17.001 10.9559 14.9491 9.12891 13.1221C9.085 13.0782 9.04283 13.0331 9 12.9893C8.95717 13.0331 8.915 13.0782 8.87109 13.1221C7.0441 14.9491 4.07627 17.001 0 17.001V11.001C1.92373 11.001 3.4559 10.0529 4.62891 8.87988C5.20727 8.30151 5.64772 7.71495 5.94141 7.27441C6.08656 7.05668 6.19138 6.88164 6.25488 6.77051C6.28652 6.71514 6.30695 6.67582 6.31738 6.65625L6.32324 6.64648L9 1.29297L11.6748 6.64258ZM6.31836 6.65527L6.31738 6.65723L6.32031 6.65234C6.31983 6.65331 6.31891 6.65417 6.31836 6.65527ZM11.6826 6.65723L11.6816 6.65527C11.6811 6.65417 11.6802 6.65331 11.6797 6.65234L11.6826 6.65723Z" fill="white"/>
</svg>
