<svg width="38" height="45" viewBox="0 0 38 45" fill="none" xmlns="http://www.w3.org/2000/svg">
<path d="M34.5 7.29492L19 3.54297L3.5 7.29492V27.3242C3.50015 28.7456 4.17168 30.0835 5.31152 30.9326L19 41.1289L32.6885 30.9326C33.8283 30.0835 34.4999 28.7456 34.5 27.3242V7.29492ZM37.5 27.3242C37.4999 29.6932 36.3802 31.9226 34.4805 33.3379L19 44.8701L3.51953 33.3379C1.61977 31.9226 0.50015 29.6932 0.5 27.3242V4.93555L18.6475 0.541992L19 0.457031L19.3525 0.541992L37.5 4.93555V27.3242Z" fill="black"/>
<path d="M20 11H11.5L15.5 22.5H24L20 11Z" fill="black"/>
<path d="M10 11H7L15 32.5H17.5L10 11Z" fill="black"/>
<path d="M28 13H19.5L23.5 24.5H32L28 13Z" fill="black"/>
</svg>
