<svg width="428" height="142" viewBox="0 0 428 142" fill="none" xmlns="http://www.w3.org/2000/svg">
<path d="M275.379 117.84C275.127 117.84 274.903 117.756 274.707 117.588C274.539 117.392 274.455 117.168 274.455 116.916V116.622C274.455 116.146 274.301 115.754 273.993 115.446C273.685 115.11 273.293 114.942 272.817 114.942H264.585C264.137 114.942 263.745 115.11 263.409 115.446C263.101 115.754 262.947 116.146 262.947 116.622V119.058C262.947 119.534 263.101 119.94 263.409 120.276C263.745 120.584 264.137 120.738 264.585 120.738H272.817C273.825 120.738 274.777 120.934 275.673 121.326C276.569 121.718 277.353 122.25 278.025 122.922C278.697 123.594 279.229 124.378 279.621 125.274C280.013 126.17 280.209 127.122 280.209 128.13V130.566C280.209 131.602 280.013 132.568 279.621 133.464C279.229 134.36 278.697 135.144 278.025 135.816C277.353 136.488 276.569 137.02 275.673 137.412C274.777 137.804 273.825 138 272.817 138H264.585C263.577 138 262.625 137.804 261.729 137.412C260.833 137.02 260.049 136.488 259.377 135.816C258.705 135.144 258.173 134.36 257.781 133.464C257.389 132.568 257.193 131.602 257.193 130.566V130.272C257.193 130.02 257.277 129.81 257.445 129.642C257.641 129.446 257.865 129.348 258.117 129.348H262.023C262.275 129.348 262.485 129.446 262.653 129.642C262.849 129.81 262.947 130.02 262.947 130.272V130.566C262.947 131.042 263.101 131.448 263.409 131.784C263.745 132.092 264.137 132.246 264.585 132.246H272.817C273.293 132.246 273.685 132.092 273.993 131.784C274.301 131.448 274.455 131.042 274.455 130.566V128.13C274.455 127.654 274.301 127.262 273.993 126.954C273.685 126.646 273.293 126.492 272.817 126.492H264.585C263.577 126.492 262.625 126.296 261.729 125.904C260.833 125.512 260.049 124.98 259.377 124.308C258.705 123.636 258.173 122.852 257.781 121.956C257.389 121.032 257.193 120.066 257.193 119.058V116.622C257.193 115.586 257.389 114.62 257.781 113.724C258.173 112.828 258.705 112.044 259.377 111.372C260.049 110.7 260.833 110.168 261.729 109.776C262.625 109.384 263.577 109.188 264.585 109.188H272.817C273.825 109.188 274.777 109.384 275.673 109.776C276.569 110.168 277.353 110.7 278.025 111.372C278.697 112.044 279.229 112.828 279.621 113.724C280.013 114.62 280.209 115.586 280.209 116.622V116.916C280.209 117.168 280.125 117.392 279.957 117.588C279.789 117.756 279.579 117.84 279.327 117.84H275.379Z" fill="black"/>
<path d="M250.705 114.06C250.705 114.312 250.621 114.522 250.453 114.69C250.285 114.858 250.075 114.942 249.823 114.942H234.283V120.738H248.353C248.605 120.738 248.815 120.822 248.983 120.99C249.179 121.158 249.277 121.368 249.277 121.62V125.568C249.277 125.82 249.179 126.044 248.983 126.24C248.815 126.408 248.605 126.492 248.353 126.492H234.283V132.246H249.823C250.075 132.246 250.285 132.344 250.453 132.54C250.621 132.708 250.705 132.918 250.705 133.17V137.076C250.705 137.328 250.621 137.552 250.453 137.748C250.285 137.916 250.075 138 249.823 138H229.411C229.159 138 228.949 137.916 228.781 137.748C228.613 137.552 228.529 137.328 228.529 137.076V110.112C228.529 109.86 228.613 109.65 228.781 109.482C228.949 109.286 229.159 109.188 229.411 109.188H249.823C250.075 109.188 250.285 109.286 250.453 109.482C250.621 109.65 250.705 109.86 250.705 110.112V114.06Z" fill="black"/>
<path d="M215.246 110.112C215.246 109.86 215.33 109.65 215.498 109.482C215.694 109.286 215.918 109.188 216.17 109.188H220.118C220.37 109.188 220.58 109.286 220.748 109.482C220.944 109.65 221.042 109.86 221.042 110.112V137.076C221.042 137.328 220.944 137.552 220.748 137.748C220.58 137.916 220.37 138 220.118 138H216.17C215.918 138 215.694 137.916 215.498 137.748C215.33 137.552 215.246 137.328 215.246 137.076V127.248L203.738 116.916V137.076C203.738 137.328 203.64 137.552 203.444 137.748C203.276 137.916 203.066 138 202.814 138H198.908C198.656 138 198.432 137.916 198.236 137.748C198.068 137.552 197.984 137.328 197.984 137.076V110.112C197.984 109.86 198.068 109.65 198.236 109.482C198.432 109.286 198.656 109.188 198.908 109.188H202.814C203.066 109.188 203.346 109.258 203.654 109.398C203.962 109.51 204.214 109.65 204.41 109.818L215.246 119.52V110.112Z" fill="black"/>
<path d="M177.532 138H157.876C157.624 138 157.4 137.916 157.204 137.748C157.036 137.552 156.952 137.328 156.952 137.076V110.112C156.952 109.86 157.036 109.65 157.204 109.482C157.4 109.286 157.624 109.188 157.876 109.188H161.782C162.034 109.188 162.244 109.286 162.412 109.482C162.608 109.65 162.706 109.86 162.706 110.112V132.246H177.532C177.784 132.246 177.994 132.344 178.162 132.54C178.33 132.708 178.414 132.918 178.414 133.17V137.076C178.414 137.328 178.33 137.552 178.162 137.748C177.994 137.916 177.784 138 177.532 138Z" fill="black"/>
<path d="M149.743 109.188C149.995 109.188 150.205 109.286 150.373 109.482C150.569 109.65 150.667 109.86 150.667 110.112V114.06C150.667 114.312 150.569 114.522 150.373 114.69C150.205 114.858 149.995 114.942 149.743 114.942H142.015V137.076C142.015 137.328 141.917 137.552 141.721 137.748C141.553 137.916 141.343 138 141.091 138H137.143C136.891 138 136.681 137.916 136.513 137.748C136.345 137.552 136.261 137.328 136.261 137.076V114.942H128.533C128.281 114.942 128.057 114.858 127.861 114.69C127.693 114.522 127.609 114.312 127.609 114.06V110.112C127.609 109.86 127.693 109.65 127.861 109.482C128.057 109.286 128.281 109.188 128.533 109.188H149.743Z" fill="black"/>
<path d="M114.745 110.112C114.745 109.86 114.829 109.65 114.997 109.482C115.193 109.286 115.417 109.188 115.669 109.188H119.617C119.869 109.188 120.079 109.286 120.247 109.482C120.443 109.65 120.541 109.86 120.541 110.112V137.076C120.541 137.328 120.443 137.552 120.247 137.748C120.079 137.916 119.869 138 119.617 138H115.669C115.417 138 115.193 137.916 114.997 137.748C114.829 137.552 114.745 137.328 114.745 137.076V127.248L103.237 116.916V137.076C103.237 137.328 103.139 137.552 102.943 137.748C102.775 137.916 102.565 138 102.313 138H98.4075C98.1555 138 97.9315 137.916 97.7355 137.748C97.5675 137.552 97.4835 137.328 97.4835 137.076V110.112C97.4835 109.86 97.5675 109.65 97.7355 109.482C97.9315 109.286 98.1555 109.188 98.4075 109.188H102.313C102.565 109.188 102.845 109.258 103.153 109.398C103.461 109.51 103.713 109.65 103.909 109.818L114.745 119.52V110.112Z" fill="black"/>
<path d="M82.9823 109.23C84.0183 109.23 84.9843 109.426 85.8803 109.818C86.7763 110.21 87.5603 110.742 88.2323 111.414C88.9043 112.086 89.4363 112.87 89.8283 113.766C90.2203 114.662 90.4163 115.614 90.4163 116.622V130.608C90.4163 131.616 90.2203 132.568 89.8283 133.464C89.4363 134.36 88.9043 135.144 88.2323 135.816C87.5603 136.488 86.7763 137.02 85.8803 137.412C84.9843 137.804 84.0183 138 82.9823 138H74.7923C73.7563 138 72.7903 137.804 71.8943 137.412C70.9983 137.02 70.2143 136.488 69.5423 135.816C68.8703 135.144 68.3383 134.36 67.9463 133.464C67.5543 132.568 67.3583 131.616 67.3583 130.608V116.622C67.3583 115.614 67.5543 114.662 67.9463 113.766C68.3383 112.87 68.8703 112.086 69.5423 111.414C70.2143 110.742 70.9983 110.21 71.8943 109.818C72.7903 109.426 73.7563 109.23 74.7923 109.23H82.9823ZM84.6623 116.622C84.6623 116.146 84.4943 115.754 84.1583 115.446C83.8503 115.138 83.4583 114.984 82.9823 114.984H74.7923C74.3163 114.984 73.9103 115.138 73.5743 115.446C73.2663 115.754 73.1123 116.146 73.1123 116.622V130.608C73.1123 131.084 73.2663 131.476 73.5743 131.784C73.9103 132.092 74.3163 132.246 74.7923 132.246H82.9823C83.4583 132.246 83.8503 132.092 84.1583 131.784C84.4943 131.476 84.6623 131.084 84.6623 130.608V116.622Z" fill="black"/>
<path d="M59.8712 137.16C59.9832 137.384 59.9832 137.58 59.8712 137.748C59.7592 137.916 59.5772 138 59.3252 138H54.8312C54.5792 138 54.3272 137.916 54.0752 137.748C53.8512 137.58 53.6832 137.384 53.5712 137.16L48.7412 126.492H43.0292V137.076C43.0292 137.328 42.9312 137.552 42.7352 137.748C42.5672 137.916 42.3572 138 42.1052 138H38.1572C37.9052 138 37.6812 137.916 37.4852 137.748C37.3172 137.552 37.2332 137.328 37.2332 137.076V110.112C37.2332 109.86 37.3172 109.65 37.4852 109.482C37.6812 109.286 37.9052 109.188 38.1572 109.188H52.8572C53.8932 109.188 54.8592 109.384 55.7552 109.776C56.6512 110.168 57.4352 110.7 58.1072 111.372C58.7792 112.044 59.3112 112.828 59.7032 113.724C60.0952 114.62 60.2912 115.586 60.2912 116.622V119.058C60.2912 119.898 60.1512 120.71 59.8712 121.494C59.6192 122.25 59.2552 122.95 58.7792 123.594C58.3032 124.21 57.7292 124.742 57.0572 125.19C56.4132 125.638 55.6992 125.974 54.9152 126.198L59.8712 137.16ZM52.8572 120.738C53.3332 120.738 53.7252 120.584 54.0332 120.276C54.3692 119.94 54.5372 119.534 54.5372 119.058V116.622C54.5372 116.146 54.3692 115.754 54.0332 115.446C53.7252 115.11 53.3332 114.942 52.8572 114.942H43.0292V120.738H52.8572Z" fill="black"/>
<path d="M30.166 114.06C30.166 114.312 30.068 114.522 29.872 114.69C29.704 114.858 29.494 114.942 29.242 114.942H13.534V120.738H27.814C28.066 120.738 28.276 120.822 28.444 120.99C28.64 121.158 28.738 121.368 28.738 121.62V125.568C28.738 125.82 28.64 126.044 28.444 126.24C28.276 126.408 28.066 126.492 27.814 126.492H13.534V137.076C13.534 137.328 13.436 137.552 13.24 137.748C13.072 137.916 12.862 138 12.61 138H8.66198C8.40998 138 8.18598 137.916 7.98998 137.748C7.82198 137.552 7.73798 137.328 7.73798 137.076V110.112C7.73798 109.86 7.82198 109.65 7.98998 109.482C8.18598 109.286 8.40998 109.188 8.66198 109.188H29.242C29.494 109.188 29.704 109.286 29.872 109.482C30.068 109.65 30.166 109.86 30.166 110.112V114.06Z" fill="black"/>
<path d="M149.702 73.188C149.954 73.188 150.164 73.286 150.332 73.482C150.528 73.65 150.626 73.86 150.626 74.112V78.06C150.626 78.312 150.528 78.522 150.332 78.69C150.164 78.858 149.954 78.942 149.702 78.942H141.974V101.076C141.974 101.328 141.876 101.552 141.68 101.748C141.512 101.916 141.302 102 141.05 102H137.102C136.85 102 136.64 101.916 136.472 101.748C136.304 101.552 136.22 101.328 136.22 101.076V78.942H128.492C128.24 78.942 128.016 78.858 127.82 78.69C127.652 78.522 127.568 78.312 127.568 78.06V74.112C127.568 73.86 127.652 73.65 127.82 73.482C128.016 73.286 128.24 73.188 128.492 73.188H149.702Z" fill="black"/>
<path d="M104.834 102C103.826 102 102.874 101.804 101.978 101.412C101.082 101.02 100.298 100.488 99.6264 99.816C98.9544 99.144 98.4224 98.36 98.0304 97.464C97.6384 96.568 97.4424 95.602 97.4424 94.566V74.112C97.4424 73.86 97.5264 73.65 97.6944 73.482C97.8904 73.286 98.1144 73.188 98.3664 73.188H102.272C102.524 73.188 102.734 73.286 102.902 73.482C103.098 73.65 103.196 73.86 103.196 74.112V94.566C103.196 95.042 103.35 95.448 103.658 95.784C103.994 96.092 104.386 96.246 104.834 96.246H113.066C113.542 96.246 113.934 96.092 114.242 95.784C114.55 95.448 114.704 95.042 114.704 94.566V74.112C114.704 73.86 114.788 73.65 114.956 73.482C115.152 73.286 115.376 73.188 115.628 73.188H119.576C119.828 73.188 120.038 73.286 120.206 73.482C120.402 73.65 120.5 73.86 120.5 74.112V94.566C120.5 95.602 120.304 96.568 119.912 97.464C119.52 98.36 118.988 99.144 118.316 99.816C117.644 100.488 116.846 101.02 115.922 101.412C115.026 101.804 114.074 102 113.066 102H104.834Z" fill="black"/>
<path d="M82.9413 73.23C83.9773 73.23 84.9433 73.426 85.8393 73.818C86.7353 74.21 87.5193 74.742 88.1913 75.414C88.8633 76.086 89.3953 76.87 89.7873 77.766C90.1793 78.662 90.3753 79.614 90.3753 80.622V94.608C90.3753 95.616 90.1793 96.568 89.7873 97.464C89.3953 98.36 88.8633 99.144 88.1913 99.816C87.5193 100.488 86.7353 101.02 85.8393 101.412C84.9433 101.804 83.9773 102 82.9413 102H74.7513C73.7153 102 72.7493 101.804 71.8533 101.412C70.9573 101.02 70.1733 100.488 69.5013 99.816C68.8293 99.144 68.2973 98.36 67.9053 97.464C67.5133 96.568 67.3173 95.616 67.3173 94.608V80.622C67.3173 79.614 67.5133 78.662 67.9053 77.766C68.2973 76.87 68.8293 76.086 69.5013 75.414C70.1733 74.742 70.9573 74.21 71.8533 73.818C72.7493 73.426 73.7153 73.23 74.7513 73.23H82.9413ZM84.6213 80.622C84.6213 80.146 84.4533 79.754 84.1173 79.446C83.8093 79.138 83.4173 78.984 82.9413 78.984H74.7513C74.2753 78.984 73.8693 79.138 73.5333 79.446C73.2253 79.754 73.0713 80.146 73.0713 80.622V94.608C73.0713 95.084 73.2253 95.476 73.5333 95.784C73.8693 96.092 74.2753 96.246 74.7513 96.246H82.9413C83.4173 96.246 83.8093 96.092 84.1173 95.784C84.4533 95.476 84.6213 95.084 84.6213 94.608V80.622Z" fill="black"/>
<path d="M52.8572 73.188C53.8652 73.188 54.8172 73.384 55.7132 73.776C56.6092 74.168 57.3932 74.7 58.0652 75.372C58.7372 76.044 59.2692 76.828 59.6612 77.724C60.0532 78.62 60.2492 79.586 60.2492 80.622V83.058C60.2492 83.926 60.1092 84.738 59.8292 85.494C59.5492 86.25 59.1712 86.95 58.6952 87.594C59.1712 88.238 59.5492 88.938 59.8292 89.694C60.1092 90.45 60.2492 91.262 60.2492 92.13V94.566C60.2492 95.602 60.0532 96.568 59.6612 97.464C59.2692 98.36 58.7372 99.144 58.0652 99.816C57.3932 100.488 56.6092 101.02 55.7132 101.412C54.8172 101.804 53.8652 102 52.8572 102H38.1152C37.8632 102 37.6532 101.916 37.4852 101.748C37.3172 101.552 37.2332 101.328 37.2332 101.076V74.112C37.2332 73.86 37.3172 73.65 37.4852 73.482C37.6532 73.286 37.8632 73.188 38.1152 73.188H52.8572ZM42.9872 84.696H52.8572C53.3052 84.696 53.6832 84.542 53.9912 84.234C54.3272 83.926 54.4952 83.534 54.4952 83.058V80.622C54.4952 80.146 54.3272 79.754 53.9912 79.446C53.6832 79.11 53.3052 78.942 52.8572 78.942H42.9872V84.696ZM54.4952 92.13C54.4952 91.654 54.3272 91.262 53.9912 90.954C53.6832 90.646 53.3052 90.492 52.8572 90.492H42.9872V96.246H52.8572C53.3052 96.246 53.6832 96.092 53.9912 95.784C54.3272 95.448 54.4952 95.042 54.4952 94.566V92.13Z" fill="black"/>
<path d="M22.564 73.188C22.816 73.188 23.054 73.272 23.278 73.44C23.53 73.608 23.698 73.804 23.782 74.028L29.83 89.064C29.914 89.288 29.984 89.582 30.04 89.946C30.124 90.282 30.166 90.576 30.166 90.828V101.076C30.166 101.328 30.068 101.552 29.872 101.748C29.704 101.916 29.494 102 29.242 102H25.294C25.042 102 24.818 101.916 24.622 101.748C24.454 101.552 24.37 101.328 24.37 101.076V96.246H12.862V101.076C12.862 101.328 12.764 101.552 12.568 101.748C12.4 101.916 12.19 102 11.938 102H8.03197C7.77997 102 7.55597 101.916 7.35997 101.748C7.19197 101.552 7.10797 101.328 7.10797 101.076V90.828C7.10797 90.576 7.13597 90.282 7.19197 89.946C7.27597 89.582 7.35997 89.288 7.44397 89.064L13.45 74.028C13.562 73.804 13.73 73.608 13.954 73.44C14.206 73.272 14.458 73.188 14.71 73.188H22.564ZM13.072 90.492H24.16L19.54 78.942H17.692L13.072 90.492Z" fill="black"/>
<path d="M256.193 130.272C256.193 129.773 256.37 129.302 256.738 128.935C257.101 128.572 257.572 128.348 258.117 128.348V129.348C257.865 129.348 257.641 129.446 257.445 129.642C257.277 129.81 257.193 130.02 257.193 130.272V130.566L257.202 130.951C257.245 131.842 257.438 132.68 257.781 133.464C258.173 134.36 258.705 135.144 259.377 135.816C260.049 136.488 260.833 137.02 261.729 137.412C262.625 137.804 263.577 138 264.585 138H272.817C273.699 138 274.539 137.85 275.335 137.55L275.674 137.412C276.458 137.069 277.156 136.619 277.769 136.062L278.025 135.816C278.697 135.144 279.229 134.36 279.621 133.464C279.964 132.68 280.157 131.842 280.2 130.951L280.209 130.566V128.13C280.209 127.248 280.059 126.409 279.759 125.612L279.621 125.274C279.278 124.49 278.828 123.792 278.271 123.18L278.025 122.922C277.437 122.334 276.763 121.853 276.004 121.479L275.674 121.326C274.89 120.983 274.062 120.79 273.192 120.747L272.817 120.738V119.738C273.816 119.738 274.775 119.908 275.687 120.252L276.074 120.41C277.081 120.851 277.97 121.452 278.732 122.215C279.495 122.978 280.097 123.866 280.537 124.873C280.986 125.899 281.209 126.988 281.209 128.13V130.566L281.199 131C281.151 132.006 280.931 132.964 280.537 133.865C280.097 134.872 279.495 135.761 278.732 136.523C277.97 137.286 277.081 137.888 276.074 138.328C275.048 138.777 273.959 139 272.817 139H264.585C263.443 139 262.354 138.777 261.328 138.328C260.447 137.943 259.657 137.434 258.962 136.802L258.67 136.523C258.003 135.856 257.459 135.092 257.038 134.237L256.865 133.865C256.415 132.836 256.193 131.732 256.193 130.566V130.272ZM272.817 131.246V132.246H264.585V131.246H272.817ZM273.455 128.13C273.455 127.952 273.417 127.835 273.355 127.744L273.286 127.661C273.21 127.585 273.118 127.528 272.977 127.504L272.817 127.492H264.585C263.586 127.492 262.628 127.321 261.717 126.978L261.328 126.82C260.321 126.38 259.433 125.777 258.67 125.015C258.003 124.347 257.459 123.583 257.038 122.729L256.865 122.356L256.86 122.347C256.416 121.299 256.193 120.199 256.193 119.058V116.622C256.193 115.456 256.415 114.353 256.865 113.323C257.306 112.317 257.907 111.428 258.67 110.665C259.433 109.902 260.321 109.3 261.328 108.859C262.354 108.41 263.443 108.189 264.585 108.188V109.188L264.21 109.197C263.34 109.24 262.513 109.433 261.729 109.776L261.398 109.93C260.639 110.303 259.965 110.784 259.377 111.372L259.132 111.629C258.574 112.241 258.124 112.94 257.781 113.724C257.389 114.62 257.193 115.586 257.193 116.622V119.058C257.193 120.066 257.389 121.032 257.781 121.956C258.173 122.852 258.705 123.636 259.377 124.308C260.049 124.98 260.833 125.512 261.729 125.904C262.513 126.247 263.34 126.44 264.21 126.482L264.585 126.492H272.817C273.293 126.492 273.685 126.646 273.993 126.954C274.301 127.262 274.455 127.654 274.455 128.13V130.566L274.448 130.741C274.415 131.142 274.263 131.49 273.993 131.784C273.685 132.092 273.293 132.246 272.817 132.246V131.246C273.043 131.246 273.169 131.184 273.269 131.091C273.39 130.952 273.455 130.795 273.455 130.566V128.13ZM262.947 130.566V130.272C262.947 130.02 262.849 129.81 262.653 129.642C262.506 129.47 262.327 129.374 262.116 129.353L262.023 129.348V128.348C262.552 128.348 263.017 128.562 263.365 128.941C263.688 129.243 263.89 129.629 263.937 130.068L263.947 130.272V130.566L263.96 130.731C263.983 130.869 264.038 130.976 264.12 131.074C264.264 131.195 264.406 131.246 264.585 131.246V132.246L264.42 132.239C264.04 132.206 263.703 132.054 263.409 131.784C263.14 131.49 262.989 131.142 262.955 130.741L262.947 130.566ZM262.023 128.348V129.348H258.117V128.348H262.023ZM272.817 119.738V120.738H264.585V119.738H272.817ZM273.455 116.916V116.622C273.455 116.444 273.417 116.327 273.355 116.236L273.286 116.153L273.271 116.138L273.256 116.122C273.174 116.033 273.086 115.976 272.959 115.953L272.817 115.942H264.585C264.42 115.942 264.277 115.992 264.116 116.153C264.014 116.255 263.947 116.384 263.947 116.622V119.058C263.947 119.278 264.008 119.431 264.12 119.566C264.264 119.687 264.406 119.738 264.585 119.738V120.738L264.42 120.73C264.04 120.697 263.703 120.546 263.409 120.276C263.101 119.94 262.947 119.534 262.947 119.058V116.622C262.947 116.206 263.065 115.853 263.301 115.565L263.409 115.446C263.703 115.152 264.04 114.987 264.42 114.95L264.585 114.942H272.817C273.293 114.942 273.685 115.11 273.993 115.446C274.301 115.754 274.455 116.146 274.455 116.622V116.916L274.459 117.009C274.477 117.223 274.56 117.416 274.707 117.588C274.903 117.756 275.127 117.84 275.379 117.84H279.327C279.579 117.84 279.789 117.756 279.957 117.588C280.104 117.416 280.187 117.223 280.205 117.009L280.209 116.916V116.622C280.209 115.586 280.013 114.62 279.621 113.724C279.278 112.94 278.828 112.241 278.271 111.629L278.025 111.372C277.437 110.784 276.763 110.303 276.004 109.93L275.674 109.776C274.89 109.433 274.062 109.24 273.192 109.197L272.817 109.188V108.188C273.816 108.188 274.775 108.359 275.687 108.702L276.074 108.859C276.955 109.245 277.746 109.754 278.44 110.387L278.732 110.665C279.4 111.332 279.945 112.096 280.365 112.951L280.537 113.323C280.988 114.353 281.209 115.456 281.209 116.622V116.916L281.201 117.101C281.164 117.525 280.996 117.913 280.717 118.239L280.691 118.268L280.664 118.295C280.296 118.663 279.826 118.84 279.327 118.84H275.379C274.944 118.84 274.543 118.707 274.2 118.46L274.057 118.348L273.998 118.297L273.948 118.239C273.629 117.867 273.455 117.413 273.455 116.916ZM272.817 108.188V109.188H264.585V108.188H272.817Z" fill="black"/>
<path d="M227.529 137.076V110.112C227.529 109.632 227.694 109.179 228.034 108.817C228.386 108.415 228.865 108.189 229.411 108.188V109.188L229.318 109.192C229.107 109.214 228.928 109.311 228.781 109.482C228.613 109.65 228.529 109.86 228.529 110.112V137.076L228.533 137.169C228.552 137.383 228.634 137.576 228.781 137.748C228.949 137.916 229.159 138 229.411 138H249.823C250.044 138 250.232 137.936 250.389 137.807L250.453 137.748C250.6 137.576 250.683 137.383 250.701 137.169L250.705 137.076V133.17C250.705 132.918 250.621 132.708 250.453 132.54C250.306 132.369 250.127 132.272 249.916 132.251L249.823 132.246V131.246C250.349 131.246 250.812 131.458 251.159 131.833H251.16C251.167 131.84 251.172 131.847 251.179 131.854C251.19 131.866 251.202 131.877 251.213 131.89H251.212C251.544 132.249 251.705 132.695 251.705 133.17V137.076L251.697 137.261C251.66 137.685 251.492 138.073 251.213 138.398L251.188 138.428L251.16 138.455C250.792 138.823 250.323 139 249.823 139H229.411C228.974 139 228.56 138.864 228.217 138.584L228.074 138.455L228.047 138.428L228.022 138.398C227.703 138.026 227.529 137.573 227.529 137.076ZM249.277 125.568V121.62C249.277 121.368 249.179 121.158 248.983 120.99C248.836 120.843 248.657 120.76 248.445 120.742L248.354 120.738V119.738C248.828 119.738 249.274 119.899 249.633 120.23H249.634C249.646 120.241 249.657 120.253 249.669 120.264C249.676 120.27 249.684 120.276 249.69 120.283H249.689C250.016 120.585 250.219 120.974 250.267 121.416L250.277 121.62V125.568L250.267 125.769C250.219 126.229 250.008 126.63 249.69 126.947C249.323 127.315 248.853 127.492 248.354 127.492H235.283V131.246H249.823V132.246H234.283V126.492H248.354L248.445 126.488C248.627 126.473 248.784 126.409 248.918 126.299L248.983 126.24C249.155 126.069 249.251 125.876 249.272 125.661L249.277 125.568ZM250.705 114.06V110.112C250.705 109.86 250.621 109.65 250.453 109.482C250.306 109.311 250.127 109.214 249.916 109.192L249.823 109.188V108.188C250.349 108.188 250.812 108.399 251.159 108.774H251.16C251.178 108.793 251.196 108.812 251.213 108.831H251.212C251.5 109.143 251.66 109.521 251.697 109.926L251.705 110.112V114.06C251.705 114.559 251.528 115.03 251.16 115.397C250.792 115.765 250.322 115.942 249.823 115.942H235.283V119.738H248.354V120.738H234.283V114.942H249.823L249.916 114.938C250.097 114.923 250.255 114.859 250.389 114.749L250.453 114.69C250.621 114.522 250.705 114.312 250.705 114.06ZM249.823 108.188V109.188H229.411V108.188H249.823Z" fill="black"/>
<path d="M214.246 127.693L204.738 119.157V137.076L204.728 137.276C204.68 137.737 204.469 138.137 204.151 138.455C203.784 138.823 203.314 139 202.814 139H198.908C198.411 139 197.957 138.826 197.585 138.507L197.527 138.457L197.477 138.398C197.158 138.026 196.984 137.573 196.984 137.076V110.112C196.984 109.613 197.162 109.142 197.529 108.774L197.67 108.646C198.011 108.359 198.431 108.188 198.908 108.188V109.188L198.814 109.192C198.6 109.214 198.408 109.311 198.236 109.482C198.068 109.65 197.984 109.86 197.984 110.112V137.076L197.988 137.169C198.007 137.383 198.089 137.576 198.236 137.748C198.408 137.895 198.6 137.978 198.814 137.996L198.908 138H202.814L202.906 137.996C203.088 137.98 203.245 137.917 203.379 137.807L203.444 137.748C203.616 137.577 203.712 137.383 203.733 137.169L203.738 137.076V116.916L215.246 127.248V137.076L215.25 137.169C215.268 137.383 215.351 137.576 215.498 137.748C215.694 137.916 215.918 138 216.17 138H220.118L220.211 137.996C220.392 137.98 220.55 137.917 220.684 137.807L220.748 137.748C220.92 137.576 221.016 137.383 221.037 137.169L221.042 137.076V110.112C221.042 109.86 220.944 109.65 220.748 109.482C220.601 109.311 220.422 109.214 220.211 109.192L220.118 109.188V108.188C220.647 108.188 221.112 108.402 221.46 108.781C221.783 109.083 221.984 109.469 222.031 109.908L222.042 110.112V137.076L222.032 137.276C221.985 137.737 221.773 138.137 221.455 138.455C221.087 138.823 220.617 139 220.118 139H216.17C215.735 139 215.333 138.867 214.99 138.62L214.848 138.507L214.789 138.457L214.739 138.398C214.42 138.026 214.246 137.573 214.246 137.076V127.693ZM202.814 108.188C203.223 108.189 203.621 108.296 203.996 108.458C204.388 108.6 204.752 108.795 205.061 109.059L205.069 109.065L205.077 109.073L214.246 117.282V110.112C214.246 109.613 214.423 109.142 214.791 108.774L214.932 108.646C215.272 108.359 215.693 108.189 216.17 108.188V109.188L216.077 109.192C215.863 109.214 215.67 109.311 215.498 109.482C215.33 109.65 215.246 109.86 215.246 110.112V119.52L204.41 109.818C204.214 109.65 203.962 109.51 203.654 109.398C203.423 109.294 203.208 109.227 203.009 109.201L202.814 109.188V108.188ZM220.118 108.188V109.188H216.17V108.188H220.118ZM202.814 108.188V109.188H198.908V108.188H202.814Z" fill="black"/>
<path d="M155.952 110.112C155.952 109.613 156.129 109.142 156.497 108.774L156.638 108.646C156.978 108.359 157.399 108.188 157.876 108.188V109.188L157.782 109.192C157.568 109.214 157.376 109.311 157.204 109.482C157.036 109.65 156.952 109.86 156.952 110.112V137.076L156.956 137.169C156.974 137.383 157.057 137.576 157.204 137.748C157.375 137.895 157.568 137.978 157.782 137.996L157.876 138H177.532L177.624 137.996C177.805 137.98 177.963 137.917 178.097 137.807L178.162 137.748C178.309 137.577 178.392 137.383 178.41 137.169L178.414 137.076V133.17C178.414 132.918 178.33 132.708 178.162 132.54C178.015 132.368 177.835 132.272 177.624 132.251L177.532 132.246V131.246C178.058 131.246 178.521 131.458 178.868 131.833H178.869C178.882 131.846 178.894 131.861 178.906 131.874C178.911 131.879 178.916 131.884 178.921 131.89H178.92C179.208 132.202 179.369 132.579 179.405 132.984L179.414 133.17V137.076L179.405 137.261C179.368 137.685 179.2 138.073 178.921 138.398L178.896 138.428L178.869 138.455C178.501 138.823 178.031 139 177.532 139H157.876C157.379 139 156.925 138.826 156.553 138.507L156.494 138.457L156.444 138.398C156.125 138.026 155.952 137.573 155.952 137.076V110.112ZM162.706 110.112C162.706 109.86 162.608 109.65 162.412 109.482C162.265 109.311 162.085 109.214 161.874 109.192L161.782 109.188V108.188C162.307 108.189 162.77 108.4 163.117 108.774C163.444 109.077 163.648 109.466 163.695 109.908L163.706 110.112V131.246H177.532V132.246H162.706V110.112ZM161.782 108.188V109.188H157.876V108.188H161.782Z" fill="black"/>
<path d="M183.497 108.774C183.129 109.142 182.952 109.613 182.952 110.112V137.076C182.952 137.573 183.125 138.026 183.444 138.398L183.494 138.457L183.553 138.507C183.925 138.826 184.379 139 184.876 139H188.5C190.706 139 190.706 137.076 190.706 137.076V131.246V110.112L190.695 109.908C190.648 109.466 190.444 109.077 190.117 108.774C189.77 108.4 189.307 108.189 188.782 108.188H184.876C184.399 108.188 183.978 108.359 183.638 108.646L183.497 108.774Z" fill="black"/>
<path d="M135.261 115.942H128.532C128.098 115.942 127.696 115.809 127.354 115.562L127.21 115.449L127.181 115.424L127.153 115.397C126.786 115.03 126.608 114.559 126.608 114.06V110.112C126.608 109.613 126.786 109.142 127.153 108.774C127.516 108.412 127.987 108.189 128.532 108.188V109.188L128.439 109.192C128.225 109.214 128.032 109.311 127.86 109.482C127.693 109.65 127.608 109.86 127.608 110.112V114.06C127.608 114.312 127.692 114.522 127.86 114.69C128.032 114.837 128.225 114.92 128.439 114.938L128.532 114.942H136.261V137.076L136.265 137.169C136.283 137.383 136.366 137.576 136.513 137.748C136.681 137.916 136.891 138 137.143 138H141.091L141.184 137.996C141.365 137.98 141.522 137.917 141.655 137.807L141.721 137.748C141.892 137.576 141.988 137.383 142.01 137.169L142.015 137.076V114.942H149.742L149.835 114.938C150.046 114.92 150.226 114.837 150.373 114.69C150.545 114.543 150.641 114.364 150.662 114.152L150.667 114.06V110.112C150.667 109.86 150.569 109.65 150.373 109.482C150.226 109.311 150.046 109.214 149.835 109.192L149.742 109.188V108.188C150.268 108.188 150.731 108.4 151.078 108.774C151.405 109.077 151.609 109.466 151.656 109.908L151.667 110.112V114.06L151.656 114.264C151.609 114.706 151.404 115.093 151.078 115.396L151.08 115.397C151.066 115.412 151.049 115.425 151.034 115.438C151.03 115.442 151.027 115.446 151.023 115.449L151.022 115.448C150.663 115.78 150.217 115.942 149.742 115.942H143.015V137.076L143.004 137.276C142.956 137.737 142.745 138.137 142.428 138.455C142.06 138.823 141.59 139 141.091 139H137.143C136.706 139 136.291 138.864 135.948 138.584L135.806 138.455L135.778 138.428L135.753 138.398C135.434 138.026 135.261 137.573 135.261 137.076V115.942ZM149.742 108.188V109.188H128.532V108.188H149.742Z" fill="black"/>
<path d="M113.745 137.076V127.693L104.237 119.157V137.076L104.228 137.276C104.18 137.737 103.968 138.137 103.65 138.455C103.283 138.823 102.813 139 102.313 139H98.4072C97.9726 139 97.5714 138.867 97.2285 138.62L97.085 138.507L97.0264 138.457L96.9766 138.398C96.6574 138.026 96.4834 137.573 96.4834 137.076V110.112C96.4834 109.613 96.6605 109.142 97.0283 108.774C97.3912 108.412 97.8625 108.189 98.4072 108.188V109.188L98.3145 109.192C98.1 109.214 97.9069 109.311 97.7354 109.482C97.5675 109.65 97.4834 109.86 97.4834 110.112V137.076L97.4873 137.169C97.5056 137.383 97.5883 137.576 97.7354 137.748C97.9313 137.916 98.1553 138 98.4072 138H102.313L102.406 137.996C102.587 137.98 102.745 137.917 102.879 137.807L102.943 137.748C103.115 137.576 103.211 137.383 103.232 137.169L103.237 137.076V116.916L114.745 127.248V137.076L114.749 137.169C114.767 137.383 114.85 137.577 114.997 137.748C115.169 137.895 115.362 137.978 115.576 137.996L115.67 138H119.617C119.838 138 120.026 137.935 120.183 137.807L120.247 137.748C120.419 137.576 120.516 137.383 120.537 137.169L120.541 137.076V110.112C120.541 109.86 120.443 109.65 120.247 109.482C120.1 109.311 119.921 109.214 119.71 109.192L119.617 109.188V108.188C120.143 108.188 120.606 108.399 120.953 108.774C121.28 109.077 121.483 109.466 121.53 109.908L121.541 110.112V137.076L121.531 137.276C121.484 137.737 121.272 138.137 120.954 138.455C120.586 138.823 120.116 139 119.617 139H115.67C115.235 139 114.833 138.867 114.49 138.62L114.347 138.507L114.288 138.457L114.238 138.398C113.919 138.026 113.745 137.573 113.745 137.076ZM102.313 108.188C102.722 108.188 103.12 108.296 103.495 108.458C103.838 108.583 104.161 108.747 104.442 108.963L104.561 109.059L104.568 109.065L104.576 109.073L113.745 117.282V110.112C113.745 109.613 113.922 109.142 114.29 108.774C114.653 108.412 115.125 108.188 115.67 108.188V109.188L115.576 109.192C115.362 109.214 115.169 109.311 114.997 109.482C114.829 109.65 114.745 109.861 114.745 110.112V119.52L103.909 109.818C103.713 109.65 103.461 109.51 103.153 109.398C102.922 109.293 102.707 109.227 102.508 109.201L102.313 109.188V108.188ZM119.617 108.188V109.188H115.67V108.188H119.617ZM102.313 108.188V109.188H98.4072V108.188H102.313Z" fill="black"/>
<path d="M66.3584 116.622C66.3584 115.48 66.5813 114.392 67.0303 113.365C67.4707 112.358 68.0723 111.47 68.835 110.707C69.5977 109.944 70.4864 109.342 71.4932 108.901C72.5229 108.451 73.6265 108.231 74.792 108.23V109.23L74.4072 109.239C73.516 109.282 72.6786 109.475 71.8945 109.818L71.5635 109.972C70.804 110.345 70.13 110.826 69.542 111.414L69.2969 111.671C68.7395 112.283 68.2893 112.982 67.9463 113.766C67.5543 114.662 67.3584 115.614 67.3584 116.622V130.608L67.3672 130.983C67.4101 131.853 67.6033 132.68 67.9463 133.464C68.3383 134.36 68.87 135.144 69.542 135.816C70.214 136.488 70.9985 137.02 71.8945 137.412C72.7904 137.804 73.7562 138 74.792 138H82.9824L83.3672 137.991C84.1312 137.954 84.8558 137.807 85.541 137.55L85.8799 137.412C86.6638 137.069 87.3622 136.619 87.9746 136.062L88.2324 135.816C88.9044 135.144 89.4361 134.36 89.8281 133.464C90.1711 132.68 90.3644 131.853 90.4072 130.983L90.416 130.608V116.622C90.416 115.614 90.2201 114.662 89.8281 113.766C89.4851 112.982 89.0349 112.283 88.4775 111.671L88.2324 111.414C87.6444 110.826 86.9705 110.345 86.2109 109.972L85.8799 109.818C85.0958 109.475 84.2584 109.282 83.3672 109.239L82.9824 109.23V108.23C84.0023 108.23 84.9746 108.399 85.8916 108.743L86.2812 108.901C87.1623 109.287 87.9526 109.796 88.6475 110.429L88.9395 110.707C89.6068 111.374 90.1506 112.138 90.5713 112.993L90.7441 113.365C91.1931 114.392 91.416 115.48 91.416 116.622V130.608L91.4062 131.033C91.3575 132.021 91.1371 132.967 90.7441 133.865C90.3037 134.872 89.7021 135.761 88.9395 136.523C88.1768 137.286 87.288 137.888 86.2812 138.328C85.2515 138.779 84.148 139 82.9824 139H74.792C73.6265 139 72.5229 138.779 71.4932 138.328C70.6123 137.943 69.8217 137.434 69.127 136.802L68.835 136.523C68.1677 135.856 67.6238 135.092 67.2031 134.237L67.0303 133.865C66.5813 132.839 66.3585 131.75 66.3584 130.608V116.622ZM82.9824 131.246V132.246H74.792V131.246H82.9824ZM83.6621 116.622C83.6621 116.465 83.6279 116.358 83.5605 116.269L83.4824 116.184L83.4668 116.169L83.4512 116.153C83.3746 116.077 83.283 116.02 83.1416 115.996L82.9824 115.984H74.792C74.5638 115.984 74.407 116.048 74.2686 116.169C74.1744 116.269 74.1123 116.395 74.1123 116.622V130.608L74.124 130.768C74.146 130.899 74.1981 130.986 74.2666 131.06C74.4055 131.181 74.5627 131.246 74.792 131.246V132.246L74.6172 132.239C74.216 132.206 73.8682 132.054 73.5742 131.784C73.3046 131.515 73.1528 131.181 73.1191 130.782L73.1123 130.608V116.622C73.1123 116.146 73.2663 115.754 73.5742 115.446C73.8682 115.177 74.216 115.025 74.6172 114.991L74.792 114.984H82.9824C83.4584 114.984 83.8502 115.138 84.1582 115.446C84.4941 115.754 84.6621 116.146 84.6621 116.622V130.608L84.6543 130.782C84.6176 131.18 84.4523 131.515 84.1582 131.784C83.8502 132.092 83.4583 132.246 82.9824 132.246V131.246C83.2201 131.246 83.3491 131.179 83.4512 131.077L83.4668 131.062L83.4824 131.047C83.6016 130.938 83.662 130.818 83.6621 130.608V116.622ZM82.9824 108.23V109.23H74.792V108.23H82.9824Z" fill="black"/>
<path d="M36.2334 137.076V110.112C36.2334 109.613 36.4105 109.142 36.7783 108.774L36.9189 108.646C37.2598 108.359 37.6803 108.188 38.1572 108.188V109.188L38.0645 109.192C37.8499 109.214 37.657 109.311 37.4854 109.482C37.3174 109.65 37.2334 109.86 37.2334 110.112V137.076L37.2373 137.169C37.2556 137.383 37.3383 137.576 37.4854 137.748C37.6569 137.895 37.8499 137.978 38.0645 137.996L38.1572 138H42.1055L42.1973 137.996C42.3786 137.98 42.5359 137.917 42.6699 137.807L42.7354 137.748C42.9069 137.577 43.003 137.383 43.0244 137.169L43.0293 137.076V126.492H48.7412L53.5713 137.16C53.6833 137.384 53.8513 137.58 54.0752 137.748C54.3271 137.916 54.5791 138 54.8311 138H59.3252L59.416 137.996C59.5923 137.98 59.729 137.917 59.8262 137.807L59.8711 137.748C59.9831 137.58 59.983 137.384 59.8711 137.16L54.915 126.198C55.699 125.974 56.4136 125.638 57.0576 125.19C57.6455 124.799 58.1579 124.342 58.5957 123.821L58.7793 123.594C59.2552 122.95 59.6191 122.25 59.8711 121.494C60.1511 120.71 60.291 119.898 60.291 119.058V116.622C60.291 115.586 60.0951 114.62 59.7031 113.724C59.3601 112.94 58.9099 112.241 58.3525 111.629L58.1074 111.372C57.5194 110.784 56.8454 110.303 56.0859 109.93L55.7549 109.776C54.9709 109.433 54.1334 109.24 53.2422 109.197L52.8574 109.188V108.188C53.8773 108.189 54.8496 108.357 55.7666 108.701L56.1562 108.859C57.0373 109.245 57.8276 109.754 58.5225 110.387L58.8145 110.665C59.4818 111.332 60.0256 112.096 60.4463 112.951L60.6191 113.323C61.0697 114.353 61.291 115.456 61.291 116.622V119.058C61.291 120.004 61.1325 120.923 60.8184 121.81L60.8203 121.811C60.5349 122.667 60.1212 123.46 59.583 124.188L59.5771 124.197L59.5703 124.205C59.0255 124.91 58.3702 125.516 57.6113 126.021C57.1892 126.314 56.7416 126.562 56.2705 126.769L60.7822 136.748H60.7803C60.9942 137.198 61.0555 137.774 60.7031 138.303C60.3589 138.819 59.8174 139 59.3252 139H54.8311C54.4056 139 54.0145 138.873 53.667 138.671L53.5205 138.58L53.4971 138.564L53.4756 138.548C53.1839 138.329 52.9361 138.063 52.752 137.746L52.6768 137.607L52.668 137.59L52.6602 137.572L48.0967 127.492H44.0293V137.076L44.0186 137.276C43.9708 137.737 43.76 138.137 43.4424 138.455C43.0747 138.823 42.6047 139 42.1055 139H38.1572C37.6602 139 37.2064 138.826 36.834 138.507L36.7764 138.457L36.7256 138.398C36.4066 138.026 36.2334 137.573 36.2334 137.076ZM53.5371 116.622C53.5371 116.465 53.5029 116.358 53.4355 116.269L53.3574 116.184L53.3252 116.153L53.2959 116.122C53.2139 116.033 53.1262 115.976 52.999 115.953L52.8574 115.942H44.0293V119.738H52.8574V120.738H43.0293V114.942H52.8574C53.3333 114.942 53.7253 115.11 54.0332 115.446C54.3691 115.754 54.5371 116.146 54.5371 116.622V119.058C54.5371 119.534 54.3692 119.94 54.0332 120.276L53.9141 120.385C53.6263 120.621 53.2738 120.738 52.8574 120.738V119.738C53.095 119.738 53.2241 119.671 53.3262 119.569C53.4743 119.421 53.5371 119.269 53.5371 119.058V116.622ZM52.8574 108.188V109.188H38.1572V108.188H52.8574Z" fill="black"/>
<path d="M6.73828 110.112C6.73828 109.613 6.91541 109.142 7.2832 108.774L7.42383 108.646C7.76463 108.359 8.18519 108.188 8.66211 108.188V109.188L8.56836 109.192C8.35416 109.214 8.16162 109.311 7.99023 109.482C7.8223 109.65 7.73828 109.86 7.73828 110.112V137.076L7.74219 137.169C7.76052 137.383 7.84318 137.576 7.99023 137.748C8.16158 137.895 8.35423 137.978 8.56836 137.996L8.66211 138H12.6104L12.7021 137.996C12.8835 137.98 13.0408 137.917 13.1748 137.807L13.2402 137.748C13.4117 137.577 13.5079 137.383 13.5293 137.169L13.5342 137.076V126.492H27.8145L27.9062 126.488C28.0875 126.473 28.2449 126.409 28.3789 126.299L28.4443 126.24C28.6158 126.069 28.712 125.876 28.7334 125.661L28.7383 125.568V121.62C28.7383 121.368 28.6401 121.158 28.4443 120.99C28.2973 120.843 28.1177 120.761 27.9062 120.742L27.8145 120.738V119.738C28.2886 119.738 28.7349 119.899 29.0938 120.23H29.0947C29.1053 120.24 29.1146 120.25 29.125 120.26C29.1333 120.268 29.1431 120.275 29.1514 120.283H29.1504C29.4768 120.585 29.6802 120.974 29.7275 121.416L29.7383 121.62V125.568L29.7275 125.769C29.6798 126.229 29.469 126.63 29.1514 126.947C28.7837 127.315 28.3136 127.492 27.8145 127.492H14.5342V137.076L14.5234 137.276C14.4757 137.737 14.2649 138.137 13.9473 138.455C13.5796 138.823 13.1096 139 12.6104 139H8.66211C8.1651 139 7.71127 138.826 7.33887 138.507L7.28125 138.457L7.23047 138.398C6.91149 138.026 6.73832 137.573 6.73828 137.076V110.112ZM30.166 114.06V110.112C30.166 109.86 30.0679 109.65 29.8721 109.482C29.7252 109.311 29.5461 109.214 29.335 109.192L29.2422 109.188V108.188C29.7674 108.189 30.2296 108.4 30.5771 108.774C30.9042 109.077 31.1079 109.466 31.1553 109.908L31.166 110.112V114.06L31.1553 114.264C31.108 114.706 30.9046 115.094 30.5781 115.396L30.5791 115.397C30.5652 115.411 30.5494 115.423 30.5352 115.437C30.5307 115.44 30.5269 115.445 30.5225 115.449L30.5215 115.448C30.1625 115.78 29.7167 115.942 29.2422 115.942H14.5342V119.738H27.8145V120.738H13.5342V114.942H29.2422L29.335 114.938C29.5158 114.923 29.6729 114.859 29.8066 114.749L29.8721 114.69C30.0436 114.543 30.1397 114.364 30.1611 114.152L30.166 114.06ZM29.2422 108.188V109.188H8.66211V108.188H29.2422Z" fill="black"/>
<path d="M135.22 79.9424H128.491C128.057 79.9423 127.655 79.8093 127.312 79.5625L127.169 79.4492L127.14 79.4238L127.112 79.3975C126.745 79.0297 126.567 78.5589 126.567 78.0596V74.1123C126.567 73.6129 126.745 73.1422 127.112 72.7744C127.475 72.4116 127.946 72.1886 128.491 72.1885V73.1885L128.398 73.1924C128.184 73.2138 127.991 73.3109 127.819 73.4824C127.652 73.6504 127.567 73.8605 127.567 74.1123V78.0596C127.567 78.3116 127.651 78.5224 127.819 78.6904C127.991 78.8374 128.184 78.9201 128.398 78.9385L128.491 78.9424H136.22V101.076L136.224 101.169C136.242 101.383 136.325 101.576 136.472 101.748C136.64 101.916 136.85 102 137.102 102H141.05L141.143 101.996C141.324 101.98 141.48 101.917 141.614 101.807L141.68 101.748C141.851 101.576 141.947 101.383 141.969 101.169L141.974 101.076V78.9424H149.701L149.794 78.9385C150.005 78.9201 150.185 78.8375 150.332 78.6904C150.504 78.5434 150.6 78.3637 150.621 78.1523L150.626 78.0596V74.1123C150.626 73.8605 150.528 73.6504 150.332 73.4824C150.185 73.3109 150.005 73.2138 149.794 73.1924L149.701 73.1885V72.1885C150.227 72.1885 150.69 72.3995 151.037 72.7744C151.364 73.0766 151.568 73.4657 151.615 73.9082L151.626 74.1123V78.0596L151.615 78.2637C151.568 78.7058 151.363 79.0934 151.037 79.3955L151.039 79.3975C151.024 79.412 151.008 79.4245 150.993 79.4385C150.989 79.4418 150.986 79.4459 150.982 79.4492L150.981 79.4482C150.622 79.7799 150.176 79.9424 149.701 79.9424H142.974V101.076L142.963 101.276C142.915 101.737 142.704 102.137 142.387 102.455C142.019 102.823 141.549 103 141.05 103H137.102C136.665 103 136.25 102.864 135.907 102.584L135.765 102.455L135.737 102.428L135.712 102.398C135.393 102.026 135.22 101.573 135.22 101.076V79.9424ZM149.701 72.1885V73.1885H128.491V72.1885H149.701Z" fill="black"/>
<path d="M96.4424 74.1123C96.4424 73.6129 96.6195 73.1422 96.9873 72.7744C97.3502 72.4117 97.8214 72.1885 98.3662 72.1885V73.1885L98.2734 73.1924C98.059 73.2138 97.8659 73.3109 97.6943 73.4824C97.5265 73.6504 97.4424 73.8604 97.4424 74.1123V94.5664L97.4512 94.9512C97.494 95.8423 97.6873 96.6799 98.0303 97.4639C98.4223 98.3599 98.954 99.1444 99.626 99.8164C100.298 100.488 101.083 101.02 101.979 101.412C102.874 101.804 103.826 102 104.834 102H113.066C113.948 102 114.788 101.85 115.584 101.55L115.923 101.412C116.731 101.069 117.443 100.619 118.059 100.062L118.316 99.8164C118.988 99.1444 119.52 98.3599 119.912 97.4639C120.255 96.6799 120.448 95.8424 120.491 94.9512L120.5 94.5664V74.1123C120.5 73.8603 120.402 73.6504 120.206 73.4824C120.059 73.3109 119.88 73.2138 119.669 73.1924L119.576 73.1885V72.1885C120.102 72.1885 120.564 72.3995 120.912 72.7744C121.239 73.0766 121.442 73.4657 121.489 73.9082L121.5 74.1123V94.5664L121.49 95C121.442 96.0062 121.222 96.9641 120.828 97.8652C120.388 98.8719 119.786 99.7608 119.023 100.523C118.256 101.291 117.348 101.893 116.312 102.332C115.289 102.778 114.204 103 113.066 103H104.834C103.693 103 102.603 102.777 101.577 102.328C100.696 101.943 99.9057 101.434 99.2109 100.802L98.9189 100.523C98.2517 99.8561 97.7078 99.0922 97.2871 98.2373L97.1143 97.8652C96.6638 96.8356 96.4424 95.7319 96.4424 94.5664V74.1123ZM113.066 95.2461V96.2461H104.834V95.2461H113.066ZM113.704 74.1123C113.704 73.6129 113.881 73.1422 114.249 72.7744C114.612 72.4115 115.084 72.1885 115.629 72.1885V73.1885L115.535 73.1924C115.321 73.2138 115.128 73.3109 114.956 73.4824C114.788 73.6504 114.704 73.8605 114.704 74.1123V94.5664L114.697 94.7412C114.664 95.1424 114.512 95.4902 114.242 95.7842C113.934 96.092 113.542 96.2461 113.066 96.2461V95.2461C113.292 95.2461 113.418 95.1841 113.518 95.0908C113.639 94.952 113.704 94.7954 113.704 94.5664V74.1123ZM103.196 94.5664V74.1123C103.196 73.8604 103.098 73.6504 102.902 73.4824C102.755 73.311 102.576 73.2139 102.365 73.1924L102.272 73.1885V72.1885C102.798 72.1885 103.261 72.3994 103.608 72.7744C103.935 73.0766 104.138 73.4658 104.186 73.9082L104.196 74.1123V94.5664L104.209 94.7314C104.232 94.8686 104.287 94.9758 104.369 95.0742C104.513 95.1949 104.655 95.246 104.834 95.2461V96.2461L104.669 96.2393C104.289 96.2056 103.952 96.0537 103.658 95.7842C103.389 95.4902 103.238 95.1424 103.204 94.7412L103.196 94.5664ZM119.576 72.1885V73.1885H115.629V72.1885H119.576ZM102.272 72.1885V73.1885H98.3662V72.1885H102.272Z" fill="black"/>
<path d="M66.3174 80.6221C66.3174 79.4804 66.5402 78.3915 66.9893 77.3652C67.4297 76.3585 68.0313 75.4697 68.7939 74.707C69.5567 73.9443 70.4453 73.3419 71.4521 72.9014C72.4819 72.4509 73.5855 72.2305 74.751 72.2305V73.2305L74.3662 73.2393C73.475 73.2821 72.6375 73.4754 71.8535 73.8184L71.5225 73.9717C70.763 74.3453 70.0889 74.8261 69.501 75.4141L69.2559 75.6709C68.6985 76.2834 68.2483 76.9817 67.9053 77.7656C67.5133 78.6616 67.3174 79.6141 67.3174 80.6221V94.6084L67.3262 94.9834C67.369 95.8531 67.5623 96.6799 67.9053 97.4639C68.2973 98.3599 68.829 99.1444 69.501 99.8164C70.173 100.488 70.9575 101.02 71.8535 101.412C72.7494 101.804 73.7152 102 74.751 102H82.9414L83.3262 101.991C84.0902 101.954 84.8148 101.807 85.5 101.55L85.8389 101.412C86.6227 101.069 87.3212 100.619 87.9336 100.062L88.1914 99.8164C88.8634 99.1444 89.3951 98.3599 89.7871 97.4639C90.1301 96.6799 90.3233 95.8531 90.3662 94.9834L90.375 94.6084V80.6221C90.375 79.6141 90.1791 78.6616 89.7871 77.7656C89.4441 76.9817 88.9939 76.2834 88.4365 75.6709L88.1914 75.4141C87.6034 74.826 86.9294 74.3453 86.1699 73.9717L85.8389 73.8184C85.0548 73.4754 84.2174 73.2821 83.3262 73.2393L82.9414 73.2305V72.2305C83.9613 72.2305 84.9336 72.399 85.8506 72.7432L86.2402 72.9014C87.1213 73.2868 87.9116 73.7965 88.6064 74.4287L88.8984 74.707C89.5658 75.3744 90.1096 76.1382 90.5303 76.9932L90.7031 77.3652C91.1521 78.3915 91.375 79.4804 91.375 80.6221V94.6084L91.3652 95.0332C91.3165 96.0206 91.0961 96.9671 90.7031 97.8652C90.2626 98.8719 89.6611 99.7608 88.8984 100.523C88.1358 101.286 87.247 101.888 86.2402 102.328C85.2105 102.779 84.107 103 82.9414 103H74.751C73.5855 103 72.4819 102.779 71.4521 102.328C70.5713 101.943 69.7807 101.434 69.0859 100.802L68.7939 100.523C68.1267 99.8562 67.5828 99.0922 67.1621 98.2373L66.9893 97.8652C66.5403 96.839 66.3174 95.7499 66.3174 94.6084V80.6221ZM82.9414 95.2461V96.2461H74.751V95.2461H82.9414ZM83.6211 80.6221C83.6211 80.4647 83.5869 80.3582 83.5195 80.2686L83.4414 80.1836L83.4258 80.1689L83.4102 80.1533C83.3336 80.0767 83.242 80.0197 83.1006 79.9961L82.9414 79.9844H74.751C74.5227 79.9844 74.366 80.0483 74.2275 80.1689C74.1334 80.2688 74.0713 80.3954 74.0713 80.6221V94.6084L74.083 94.7676C74.105 94.8989 74.157 94.9863 74.2256 95.0596C74.3645 95.1813 74.5217 95.246 74.751 95.2461V96.2461L74.5762 96.2393C74.1749 96.2056 73.8272 96.0537 73.5332 95.7842C73.2636 95.5146 73.1118 95.1805 73.0781 94.7822L73.0713 94.6084V80.6221C73.0713 80.2056 73.189 79.8533 73.4248 79.5654L73.5332 79.4463C73.8272 79.1768 74.1749 79.0249 74.5762 78.9912L74.751 78.9844H82.9414C83.4174 78.9844 83.8092 79.1383 84.1172 79.4463C84.4531 79.7543 84.6211 80.1461 84.6211 80.6221V94.6084L84.6133 94.7822C84.5766 95.1805 84.4113 95.5146 84.1172 95.7842C83.8092 96.0921 83.4173 96.2461 82.9414 96.2461V95.2461C83.1791 95.2461 83.3081 95.1792 83.4102 95.0771L83.4258 95.0615L83.4414 95.0469C83.5606 94.9376 83.621 94.8179 83.6211 94.6084V80.6221ZM82.9414 72.2305V73.2305H74.751V72.2305H82.9414Z" fill="black"/>
<path d="M60.249 94.5664V92.1299C60.249 91.3706 60.142 90.6541 59.9277 89.9805L59.8291 89.6943C59.5841 89.0328 59.2642 88.4137 58.8691 87.8379L58.6953 87.5938C59.1118 87.0302 59.4533 86.4237 59.7197 85.7744L59.8291 85.4941C60.1091 84.7381 60.249 83.9256 60.249 83.0576V80.6221C60.249 79.5861 60.0531 78.6196 59.6611 77.7236C59.3181 76.9397 58.8679 76.2414 58.3105 75.6289L58.0654 75.3721C57.4774 74.7841 56.8034 74.3033 56.0439 73.9297L55.7129 73.7764C54.9289 73.4334 54.1022 73.2401 53.2324 73.1973L52.8574 73.1885V72.1885C53.8564 72.1885 54.815 72.3586 55.7266 72.7021L56.1143 72.8594C56.9953 73.2448 57.7856 73.7544 58.4805 74.3867L58.7725 74.665C59.4398 75.3324 59.9836 76.0962 60.4043 76.9512L60.5771 77.3232C61.0277 78.353 61.249 79.4564 61.249 80.6221V83.0576C61.249 84.035 61.0908 84.9664 60.7666 85.8418C60.5381 86.4587 60.2495 87.0425 59.9033 87.5938C60.2497 88.1452 60.538 88.7295 60.7666 89.3467C61.0908 90.2221 61.249 91.1525 61.249 92.1299V94.5664L61.2383 95C61.1898 96.0062 60.9714 96.9641 60.5771 97.8652C60.1367 98.8719 59.5351 99.7608 58.7725 100.523C58.0098 101.286 57.121 101.888 56.1143 102.328C55.088 102.777 53.9989 103 52.8574 103H38.1152C37.6783 103 37.2641 102.864 36.9209 102.584L36.7783 102.455L36.751 102.428L36.7256 102.398C36.4066 102.026 36.2334 101.573 36.2334 101.076V74.1123C36.2334 73.6377 36.3939 73.1901 36.7256 72.8311C37.0782 72.4196 37.5632 72.1885 38.1152 72.1885V73.1885L38.0225 73.1924C37.8112 73.2138 37.6323 73.311 37.4854 73.4824C37.3174 73.6504 37.2334 73.8604 37.2334 74.1123V101.076L37.2373 101.169C37.2556 101.383 37.3383 101.576 37.4854 101.748C37.6323 101.895 37.8113 101.978 38.0225 101.996L38.1152 102H52.8574L53.2324 101.991C53.9781 101.954 54.6923 101.807 55.375 101.55L55.7129 101.412C56.4968 101.069 57.1952 100.619 57.8076 100.062L58.0654 99.8164C58.7374 99.1444 59.2691 98.3599 59.6611 97.4639C60.0041 96.6799 60.1974 95.8423 60.2402 94.9512L60.249 94.5664ZM53.4951 92.1299C53.4951 91.9726 53.4609 91.866 53.3936 91.7764L53.3154 91.6914L53.2998 91.6768L53.2842 91.6611C53.1982 91.5752 53.1085 91.5226 52.9883 91.502L52.8574 91.4922H43.9873V95.2461H52.8574V96.2461H42.9873V90.4922H52.8574C53.3053 90.4922 53.6833 90.6462 53.9912 90.9541C54.3271 91.2621 54.4951 91.654 54.4951 92.1299V94.5664L54.4873 94.7412C54.4506 95.1424 54.2852 95.4902 53.9912 95.7842L53.8721 95.8926C53.5874 96.1282 53.2492 96.246 52.8574 96.2461V95.2461C53.0485 95.246 53.1697 95.1916 53.2842 95.0771C53.4322 94.9291 53.495 94.7775 53.4951 94.5664V92.1299ZM53.4951 80.6221C53.4951 80.4648 53.4609 80.3582 53.3936 80.2686L53.3154 80.1836L53.2832 80.1533L53.2539 80.1221C53.1622 80.0221 53.0763 79.9705 52.9707 79.9512L52.8574 79.9424H43.9873V83.6963H52.8574V84.6963H42.9873V78.9424H52.8574C53.3053 78.9424 53.6833 79.1104 53.9912 79.4463C54.3271 79.7543 54.4951 80.1462 54.4951 80.6221V83.0576C54.4951 83.5336 54.3272 83.9264 53.9912 84.2344C53.6833 84.5422 53.3052 84.6962 52.8574 84.6963V83.6963C53.0484 83.6962 53.1697 83.6417 53.2842 83.5273L53.2998 83.5117L53.3154 83.4971C53.4347 83.3878 53.4951 83.2673 53.4951 83.0576V80.6221ZM52.8574 72.1885V73.1885H38.1152V72.1885H52.8574Z" fill="black"/>
<path d="M23.3701 97.2461H13.8623V101.076L13.8516 101.276C13.8038 101.737 13.593 102.137 13.2754 102.455C12.9077 102.823 12.4377 103 11.9385 103H8.03223C7.53522 103 7.08139 102.826 6.70898 102.507L6.65039 102.457L6.60059 102.398C6.28157 102.026 6.10844 101.573 6.1084 101.076V90.8281C6.1084 90.5057 6.14393 90.154 6.20605 89.7812L6.21094 89.751L6.21777 89.7207C6.30681 89.3349 6.40235 88.9941 6.50781 88.7129L12.5371 73.6182L12.5557 73.5811C12.7449 73.2026 13.0202 72.8897 13.3535 72.6396L13.376 72.623L13.3994 72.6084C13.782 72.3533 14.2237 72.1885 14.71 72.1885V73.1885L14.6152 73.1924C14.3948 73.2108 14.1745 73.2935 13.9541 73.4404C13.7302 73.6084 13.5622 73.8044 13.4502 74.0283L7.44434 89.0645C7.36037 89.2884 7.27635 89.5824 7.19238 89.9463C7.13641 90.2822 7.1084 90.5762 7.1084 90.8281V101.076L7.1123 101.169C7.13064 101.383 7.2133 101.576 7.36035 101.748C7.53171 101.895 7.72433 101.978 7.93848 101.996L8.03223 102H11.9385L12.0303 101.996C12.2116 101.98 12.369 101.917 12.5029 101.807L12.5684 101.748C12.7398 101.577 12.836 101.383 12.8574 101.169L12.8623 101.076V96.2461H24.3701V101.076L24.374 101.169C24.3924 101.383 24.475 101.576 24.6221 101.748C24.818 101.916 25.042 102 25.2939 102H29.2422L29.335 101.996C29.5159 101.98 29.6729 101.917 29.8066 101.807L29.8721 101.748C30.0436 101.576 30.1397 101.383 30.1611 101.169L30.166 101.076V90.8281C30.166 90.5762 30.124 90.2822 30.04 89.9463C29.9841 89.5825 29.914 89.2884 29.8301 89.0645L23.7822 74.0283C23.6983 73.8044 23.5301 73.6084 23.2783 73.4404C23.0824 73.2935 22.8755 73.2108 22.6582 73.1924L22.5645 73.1885V72.1885C23.0566 72.1886 23.5012 72.3572 23.8779 72.6396C24.2329 72.8861 24.5399 73.2175 24.71 73.6553L30.7578 88.6904L30.7617 88.7021L30.7666 88.7129C30.8797 89.0146 30.9597 89.3679 31.0205 89.751C31.1106 90.1225 31.166 90.4849 31.166 90.8281V101.076L31.1553 101.276C31.1075 101.737 30.8968 102.137 30.5791 102.455C30.2114 102.823 29.7415 103 29.2422 103H25.2939C24.859 103 24.4573 102.867 24.1143 102.62L23.9717 102.507L23.9131 102.457L23.8623 102.398C23.5434 102.026 23.3702 101.573 23.3701 101.076V97.2461ZM19.54 78.9424L24.1602 90.4922H13.0723L17.6924 78.9424H19.54ZM14.5488 89.4922H22.6826L18.8633 79.9424H18.3682L14.5488 89.4922ZM22.5645 72.1885V73.1885H14.71V72.1885H22.5645Z" fill="black"/>
<path d="M39.5 12.2949L24 8.54297L8.5 12.2949V32.3242C8.50015 33.7456 9.17168 35.0835 10.3115 35.9326L24 46.1289L37.6885 35.9326C38.8283 35.0835 39.4999 33.7456 39.5 32.3242V12.2949ZM42.5 32.3242C42.4999 34.6932 41.3802 36.9226 39.4805 38.3379L24 49.8701L8.51953 38.3379C6.61977 36.9226 5.50015 34.6932 5.5 32.3242V9.93555L23.6475 5.54199L24 5.45703L24.3525 5.54199L42.5 9.93555V32.3242Z" fill="black"/>
<path d="M25 16H16.5L20.5 27.5H29L25 16Z" fill="black"/>
<path d="M15 16H12L20 37.5H22.5L15 16Z" fill="black"/>
<path d="M33 18H24.5L28.5 29.5H37L33 18Z" fill="black"/>
</svg>
