<svg width="52" height="52" viewBox="0 0 52 52" fill="none" xmlns="http://www.w3.org/2000/svg">
<mask id="path-1-outside-1_1522_21306" maskUnits="userSpaceOnUse" x="4" y="6" width="44" height="41" fill="black">
<rect fill="white" x="4" y="6" width="44" height="41"/>
<path d="M24.1211 34.4395L22 36.5605L19.3105 33.8711L16.1816 37L18.1211 38.9395L16 41.0605L10 35.0605L12.1211 32.9395L14.0605 34.8789L17.1895 31.75L14.5 29.0605L16.6211 26.9395L24.1211 34.4395ZM34.3105 26.6289L35.5 25.4395L37.6211 27.5605L34.1816 31L38.0605 34.8789L40 32.9395L42.1211 35.0605L36.1211 41.0605L34 38.9395L35.9395 37L32.0605 33.1211L28.6211 36.5605L26.5 34.4395L27.6895 33.25L11.0605 16.6211V10H17.6816L34.3105 26.6289ZM41.0605 16.6211L35.0605 22.6211L28.4395 16L34.4395 10H41.0605V16.6211Z"/>
</mask>
<path d="M24.1211 34.4395L22 36.5605L19.3105 33.8711L16.1816 37L18.1211 38.9395L16 41.0605L10 35.0605L12.1211 32.9395L14.0605 34.8789L17.1895 31.75L14.5 29.0605L16.6211 26.9395L24.1211 34.4395ZM34.3105 26.6289L35.5 25.4395L37.6211 27.5605L34.1816 31L38.0605 34.8789L40 32.9395L42.1211 35.0605L36.1211 41.0605L34 38.9395L35.9395 37L32.0605 33.1211L28.6211 36.5605L26.5 34.4395L27.6895 33.25L11.0605 16.6211V10H17.6816L34.3105 26.6289ZM41.0605 16.6211L35.0605 22.6211L28.4395 16L34.4395 10H41.0605V16.6211Z" fill="white"/>
<path d="M24.1211 34.4395L26.9495 37.2679L29.7779 34.4395L26.9495 31.611L24.1211 34.4395ZM22 36.5605L19.1716 39.389L22 42.2174L24.8284 39.389L22 36.5605ZM19.3105 33.8711L22.139 31.0427L19.3105 28.2142L16.4821 31.0427L19.3105 33.8711ZM16.1816 37L13.3532 34.1716L10.5248 37L13.3532 39.8284L16.1816 37ZM18.1211 38.9395L20.9495 41.7679L23.7779 38.9395L20.9495 36.111L18.1211 38.9395ZM16 41.0605L13.1716 43.889L16 46.7174L18.8284 43.889L16 41.0605ZM10 35.0605L7.17157 32.2321L4.34315 35.0605L7.17157 37.889L10 35.0605ZM12.1211 32.9395L14.9495 30.111L12.1211 27.2826L9.29267 30.111L12.1211 32.9395ZM14.0605 34.8789L11.2321 37.7073L14.0605 40.5358L16.889 37.7073L14.0605 34.8789ZM17.1895 31.75L20.0179 34.5784L22.8463 31.75L20.0179 28.9216L17.1895 31.75ZM14.5 29.0605L11.6716 26.2321L8.84315 29.0605L11.6716 31.889L14.5 29.0605ZM16.6211 26.9395L19.4495 24.111L16.6211 21.2826L13.7927 24.111L16.6211 26.9395ZM34.3105 26.6289L31.4821 29.4573L34.3105 32.2858L37.139 29.4573L34.3105 26.6289ZM35.5 25.4395L38.3284 22.611L35.5 19.7826L32.6716 22.611L35.5 25.4395ZM37.6211 27.5605L40.4495 30.389L43.2779 27.5605L40.4495 24.7321L37.6211 27.5605ZM34.1816 31L31.3532 28.1716L28.5248 31L31.3532 33.8284L34.1816 31ZM38.0605 34.8789L35.2321 37.7073L38.0605 40.5358L40.889 37.7073L38.0605 34.8789ZM40 32.9395L42.8284 30.111L40 27.2826L37.1716 30.111L40 32.9395ZM42.1211 35.0605L44.9495 37.889L47.7779 35.0605L44.9495 32.2321L42.1211 35.0605ZM36.1211 41.0605L33.2927 43.889L36.1211 46.7174L38.9495 43.889L36.1211 41.0605ZM34 38.9395L31.1716 36.111L28.3431 38.9395L31.1716 41.7679L34 38.9395ZM35.9395 37L38.7679 39.8284L41.5963 37L38.7679 34.1716L35.9395 37ZM32.0605 33.1211L34.889 30.2927L32.0605 27.4642L29.2321 30.2927L32.0605 33.1211ZM28.6211 36.5605L25.7927 39.389L28.6211 42.2174L31.4495 39.389L28.6211 36.5605ZM26.5 34.4395L23.6716 31.611L20.8431 34.4395L23.6716 37.2679L26.5 34.4395ZM27.6895 33.25L30.5179 36.0784L33.3463 33.25L30.5179 30.4216L27.6895 33.25ZM11.0605 16.6211H7.06055V18.2779L8.23212 19.4495L11.0605 16.6211ZM11.0605 10V6H7.06055V10H11.0605ZM17.6816 10L20.5101 7.17157L19.3385 6H17.6816V10ZM41.0605 16.6211L43.889 19.4495L45.0605 18.2779V16.6211H41.0605ZM35.0605 22.6211L32.2321 25.4495L35.0605 28.2779L37.889 25.4495L35.0605 22.6211ZM28.4395 16L25.611 13.1716L22.7826 16L25.611 18.8284L28.4395 16ZM34.4395 10V6H32.7826L31.611 7.17157L34.4395 10ZM41.0605 10H45.0605V6H41.0605V10ZM24.1211 34.4395L21.2927 31.611L19.1716 33.7321L22 36.5605L24.8284 39.389L26.9495 37.2679L24.1211 34.4395ZM22 36.5605L24.8284 33.7321L22.139 31.0427L19.3105 33.8711L16.4821 36.6995L19.1716 39.389L22 36.5605ZM19.3105 33.8711L16.4821 31.0427L13.3532 34.1716L16.1816 37L19.0101 39.8284L22.139 36.6995L19.3105 33.8711ZM16.1816 37L13.3532 39.8284L15.2927 41.7679L18.1211 38.9395L20.9495 36.111L19.0101 34.1716L16.1816 37ZM18.1211 38.9395L15.2927 36.111L13.1716 38.2321L16 41.0605L18.8284 43.889L20.9495 41.7679L18.1211 38.9395ZM16 41.0605L18.8284 38.2321L12.8284 32.2321L10 35.0605L7.17157 37.889L13.1716 43.889L16 41.0605ZM10 35.0605L12.8284 37.889L14.9495 35.7679L12.1211 32.9395L9.29267 30.111L7.17157 32.2321L10 35.0605ZM12.1211 32.9395L9.29267 35.7679L11.2321 37.7073L14.0605 34.8789L16.889 32.0505L14.9495 30.111L12.1211 32.9395ZM14.0605 34.8789L16.889 37.7073L20.0179 34.5784L17.1895 31.75L14.361 28.9216L11.2321 32.0505L14.0605 34.8789ZM17.1895 31.75L20.0179 28.9216L17.3284 26.2321L14.5 29.0605L11.6716 31.889L14.361 34.5784L17.1895 31.75ZM14.5 29.0605L17.3284 31.889L19.4495 29.7679L16.6211 26.9395L13.7927 24.111L11.6716 26.2321L14.5 29.0605ZM16.6211 26.9395L13.7927 29.7679L21.2927 37.2679L24.1211 34.4395L26.9495 31.611L19.4495 24.111L16.6211 26.9395ZM34.3105 26.6289L37.139 29.4573L38.3284 28.2679L35.5 25.4395L32.6716 22.611L31.4821 23.8005L34.3105 26.6289ZM35.5 25.4395L32.6716 28.2679L34.7927 30.389L37.6211 27.5605L40.4495 24.7321L38.3284 22.611L35.5 25.4395ZM37.6211 27.5605L34.7927 24.7321L31.3532 28.1716L34.1816 31L37.0101 33.8284L40.4495 30.389L37.6211 27.5605ZM34.1816 31L31.3532 33.8284L35.2321 37.7073L38.0605 34.8789L40.889 32.0505L37.0101 28.1716L34.1816 31ZM38.0605 34.8789L40.889 37.7073L42.8284 35.7679L40 32.9395L37.1716 30.111L35.2321 32.0505L38.0605 34.8789ZM40 32.9395L37.1716 35.7679L39.2927 37.889L42.1211 35.0605L44.9495 32.2321L42.8284 30.111L40 32.9395ZM42.1211 35.0605L39.2927 32.2321L33.2927 38.2321L36.1211 41.0605L38.9495 43.889L44.9495 37.889L42.1211 35.0605ZM36.1211 41.0605L38.9495 38.2321L36.8284 36.111L34 38.9395L31.1716 41.7679L33.2927 43.889L36.1211 41.0605ZM34 38.9395L36.8284 41.7679L38.7679 39.8284L35.9395 37L33.111 34.1716L31.1716 36.111L34 38.9395ZM35.9395 37L38.7679 34.1716L34.889 30.2927L32.0605 33.1211L29.2321 35.9495L33.111 39.8284L35.9395 37ZM32.0605 33.1211L29.2321 30.2927L25.7927 33.7321L28.6211 36.5605L31.4495 39.389L34.889 35.9495L32.0605 33.1211ZM28.6211 36.5605L31.4495 33.7321L29.3284 31.611L26.5 34.4395L23.6716 37.2679L25.7927 39.389L28.6211 36.5605ZM26.5 34.4395L29.3284 37.2679L30.5179 36.0784L27.6895 33.25L24.861 30.4216L23.6716 31.611L26.5 34.4395ZM27.6895 33.25L30.5179 30.4216L13.889 13.7927L11.0605 16.6211L8.23212 19.4495L24.861 36.0784L27.6895 33.25ZM11.0605 16.6211H15.0605V10H11.0605H7.06055V16.6211H11.0605ZM11.0605 10V14H17.6816V10V6H11.0605V10ZM17.6816 10L14.8532 12.8284L31.4821 29.4573L34.3105 26.6289L37.139 23.8005L20.5101 7.17157L17.6816 10ZM41.0605 16.6211L38.2321 13.7927L32.2321 19.7927L35.0605 22.6211L37.889 25.4495L43.889 19.4495L41.0605 16.6211ZM35.0605 22.6211L37.889 19.7927L31.2679 13.1716L28.4395 16L25.611 18.8284L32.2321 25.4495L35.0605 22.6211ZM28.4395 16L31.2679 18.8284L37.2679 12.8284L34.4395 10L31.611 7.17157L25.611 13.1716L28.4395 16ZM34.4395 10V14H41.0605V10V6H34.4395V10ZM41.0605 10H37.0605V16.6211H41.0605H45.0605V10H41.0605Z" fill="black" mask="url(#path-1-outside-1_1522_21306)"/>
</svg>
