<svg width="52" height="52" viewBox="0 0 52 52" fill="none" xmlns="http://www.w3.org/2000/svg">
<mask id="path-1-outside-1_1522_21306" maskUnits="userSpaceOnUse" x="6" y="6" width="41" height="40" fill="black">
<rect fill="white" x="6" y="6" width="41" height="40"/>
<path d="M24.1211 34.4395L22 36.5605L19.3105 33.8711L16.1816 37L18.1211 38.9395L16 41.0605L10 35.0605L12.1211 32.9395L14.0605 34.8789L17.1895 31.75L14.5 29.0605L16.6211 26.9395L24.1211 34.4395ZM17.0605 10C17.4584 10 17.8398 10.1581 18.1211 10.4395L34.3105 26.6289L35.5 25.4395L37.6211 27.5605L34.1816 31L38.0605 34.8789L40 32.9395L42.1211 35.0605L36.1211 41.0605L34 38.9395L35.9395 37L32.0605 33.1211L28.6211 36.5605L26.5 34.4395L27.6895 33.25L11.5 17.0605C11.2187 16.7792 11.0605 16.3978 11.0605 16V11.5C11.0605 10.6716 11.7321 10 12.5605 10H17.0605ZM41.0605 16.6211L35.0605 22.6211L28.4395 16L34.4395 10H41.0605V16.6211Z"/>
</mask>
<path d="M24.1211 34.4395L22 36.5605L19.3105 33.8711L16.1816 37L18.1211 38.9395L16 41.0605L10 35.0605L12.1211 32.9395L14.0605 34.8789L17.1895 31.75L14.5 29.0605L16.6211 26.9395L24.1211 34.4395ZM17.0605 10C17.4584 10 17.8398 10.1581 18.1211 10.4395L34.3105 26.6289L35.5 25.4395L37.6211 27.5605L34.1816 31L38.0605 34.8789L40 32.9395L42.1211 35.0605L36.1211 41.0605L34 38.9395L35.9395 37L32.0605 33.1211L28.6211 36.5605L26.5 34.4395L27.6895 33.25L11.5 17.0605C11.2187 16.7792 11.0605 16.3978 11.0605 16V11.5C11.0605 10.6716 11.7321 10 12.5605 10H17.0605ZM41.0605 16.6211L35.0605 22.6211L28.4395 16L34.4395 10H41.0605V16.6211Z" fill="white"/>
<path d="M24.1211 34.4395L26.9495 37.2679C28.5116 35.7058 28.5116 33.1731 26.9495 31.611L24.1211 34.4395ZM22 36.5605L19.1716 39.389C20.7337 40.9511 23.2663 40.9511 24.8284 39.389L22 36.5605ZM19.3105 33.8711L22.139 31.0427C20.5769 29.4806 18.0442 29.4806 16.4821 31.0427L19.3105 33.8711ZM16.1816 37L13.3532 34.1716C11.7911 35.7337 11.7911 38.2663 13.3532 39.8284L16.1816 37ZM18.1211 38.9395L20.9495 41.7679C22.5116 40.2058 22.5116 37.6731 20.9495 36.111L18.1211 38.9395ZM16 41.0605L13.1716 43.889C14.7337 45.4511 17.2663 45.4511 18.8284 43.889L16 41.0605ZM10 35.0605L7.17157 32.2321C5.60948 33.7942 5.60948 36.3269 7.17157 37.889L10 35.0605ZM12.1211 32.9395L14.9495 30.111C13.3874 28.5489 10.8548 28.5489 9.29267 30.111L12.1211 32.9395ZM14.0605 34.8789L11.2321 37.7073C12.7942 39.2694 15.3269 39.2694 16.889 37.7073L14.0605 34.8789ZM17.1895 31.75L20.0179 34.5784C21.58 33.0163 21.58 30.4837 20.0179 28.9216L17.1895 31.75ZM14.5 29.0605L11.6716 26.2321C10.1095 27.7942 10.1095 30.3269 11.6716 31.889L14.5 29.0605ZM16.6211 26.9395L19.4495 24.111C17.8874 22.5489 15.3548 22.5489 13.7927 24.111L16.6211 26.9395ZM18.1211 10.4395L20.9495 7.61103L20.9495 7.61102L18.1211 10.4395ZM34.3105 26.6289L31.4821 29.4573C33.0442 31.0194 35.5769 31.0194 37.139 29.4573L34.3105 26.6289ZM35.5 25.4395L38.3284 22.611C36.7663 21.0489 34.2337 21.0489 32.6716 22.611L35.5 25.4395ZM37.6211 27.5605L40.4495 30.389C42.0116 28.8269 42.0116 26.2942 40.4495 24.7321L37.6211 27.5605ZM34.1816 31L31.3532 28.1716C29.7911 29.7337 29.7911 32.2663 31.3532 33.8284L34.1816 31ZM38.0605 34.8789L35.2321 37.7073C36.7942 39.2694 39.3269 39.2694 40.889 37.7073L38.0605 34.8789ZM40 32.9395L42.8284 30.111C41.2663 28.5489 38.7337 28.5489 37.1716 30.111L40 32.9395ZM42.1211 35.0605L44.9495 37.889C46.5116 36.3269 46.5116 33.7942 44.9495 32.2321L42.1211 35.0605ZM36.1211 41.0605L33.2927 43.889C34.8548 45.4511 37.3874 45.4511 38.9495 43.889L36.1211 41.0605ZM34 38.9395L31.1716 36.111C29.6095 37.6731 29.6095 40.2058 31.1716 41.7679L34 38.9395ZM35.9395 37L38.7679 39.8284C40.33 38.2663 40.33 35.7337 38.7679 34.1716L35.9395 37ZM32.0605 33.1211L34.889 30.2927C33.3269 28.7306 30.7942 28.7306 29.2321 30.2927L32.0605 33.1211ZM28.6211 36.5605L25.7927 39.389C27.3548 40.9511 29.8874 40.9511 31.4495 39.389L28.6211 36.5605ZM26.5 34.4395L23.6716 31.611C22.1095 33.1731 22.1095 35.7058 23.6716 37.2679L26.5 34.4395ZM27.6895 33.25L30.5179 36.0784C32.08 34.5163 32.08 31.9837 30.5179 30.4216L27.6895 33.25ZM11.5 17.0605L8.67157 19.889L8.67157 19.889L11.5 17.0605ZM41.0605 16.6211L43.889 19.4495C44.6391 18.6994 45.0605 17.682 45.0605 16.6211H41.0605ZM35.0605 22.6211L32.2321 25.4495C33.7942 27.0116 36.3269 27.0116 37.889 25.4495L35.0605 22.6211ZM28.4395 16L25.611 13.1716C24.0489 14.7337 24.0489 17.2663 25.611 18.8284L28.4395 16ZM34.4395 10V6C33.3786 6 32.3612 6.42143 31.611 7.17157L34.4395 10ZM41.0605 10H45.0605C45.0605 7.79086 43.2697 6 41.0605 6V10ZM24.1211 34.4395L21.2927 31.611L19.1716 33.7321L22 36.5605L24.8284 39.389L26.9495 37.2679L24.1211 34.4395ZM22 36.5605L24.8284 33.7321L22.139 31.0427L19.3105 33.8711L16.4821 36.6995L19.1716 39.389L22 36.5605ZM19.3105 33.8711L16.4821 31.0427L13.3532 34.1716L16.1816 37L19.0101 39.8284L22.139 36.6995L19.3105 33.8711ZM16.1816 37L13.3532 39.8284L15.2927 41.7679L18.1211 38.9395L20.9495 36.111L19.0101 34.1716L16.1816 37ZM18.1211 38.9395L15.2927 36.111L13.1716 38.2321L16 41.0605L18.8284 43.889L20.9495 41.7679L18.1211 38.9395ZM16 41.0605L18.8284 38.2321L12.8284 32.2321L10 35.0605L7.17157 37.889L13.1716 43.889L16 41.0605ZM10 35.0605L12.8284 37.889L14.9495 35.7679L12.1211 32.9395L9.29267 30.111L7.17157 32.2321L10 35.0605ZM12.1211 32.9395L9.29267 35.7679L11.2321 37.7073L14.0605 34.8789L16.889 32.0505L14.9495 30.111L12.1211 32.9395ZM14.0605 34.8789L16.889 37.7073L20.0179 34.5784L17.1895 31.75L14.361 28.9216L11.2321 32.0505L14.0605 34.8789ZM17.1895 31.75L20.0179 28.9216L17.3284 26.2321L14.5 29.0605L11.6716 31.889L14.361 34.5784L17.1895 31.75ZM14.5 29.0605L17.3284 31.889L19.4495 29.7679L16.6211 26.9395L13.7927 24.111L11.6716 26.2321L14.5 29.0605ZM16.6211 26.9395L13.7927 29.7679L21.2927 37.2679L24.1211 34.4395L26.9495 31.611L19.4495 24.111L16.6211 26.9395ZM17.0605 10V14C16.3964 14 15.7607 13.7359 15.2927 13.2679L18.1211 10.4395L20.9495 7.61102C19.9188 6.58035 18.5203 6 17.0605 6V10ZM18.1211 10.4395L15.2927 13.2679L31.4821 29.4573L34.3105 26.6289L37.139 23.8005L20.9495 7.61103L18.1211 10.4395ZM34.3105 26.6289L37.139 29.4573L38.3284 28.2679L35.5 25.4395L32.6716 22.611L31.4821 23.8005L34.3105 26.6289ZM35.5 25.4395L32.6716 28.2679L34.7927 30.389L37.6211 27.5605L40.4495 24.7321L38.3284 22.611L35.5 25.4395ZM37.6211 27.5605L34.7927 24.7321L31.3532 28.1716L34.1816 31L37.0101 33.8284L40.4495 30.389L37.6211 27.5605ZM34.1816 31L31.3532 33.8284L35.2321 37.7073L38.0605 34.8789L40.889 32.0505L37.0101 28.1716L34.1816 31ZM38.0605 34.8789L40.889 37.7073L42.8284 35.7679L40 32.9395L37.1716 30.111L35.2321 32.0505L38.0605 34.8789ZM40 32.9395L37.1716 35.7679L39.2927 37.889L42.1211 35.0605L44.9495 32.2321L42.8284 30.111L40 32.9395ZM42.1211 35.0605L39.2927 32.2321L33.2927 38.2321L36.1211 41.0605L38.9495 43.889L44.9495 37.889L42.1211 35.0605ZM36.1211 41.0605L38.9495 38.2321L36.8284 36.111L34 38.9395L31.1716 41.7679L33.2927 43.889L36.1211 41.0605ZM34 38.9395L36.8284 41.7679L38.7679 39.8284L35.9395 37L33.111 34.1716L31.1716 36.111L34 38.9395ZM35.9395 37L38.7679 34.1716L34.889 30.2927L32.0605 33.1211L29.2321 35.9495L33.111 39.8284L35.9395 37ZM32.0605 33.1211L29.2321 30.2927L25.7927 33.7321L28.6211 36.5605L31.4495 39.389L34.889 35.9495L32.0605 33.1211ZM28.6211 36.5605L31.4495 33.7321L29.3284 31.611L26.5 34.4395L23.6716 37.2679L25.7927 39.389L28.6211 36.5605ZM26.5 34.4395L29.3284 37.2679L30.5179 36.0784L27.6895 33.25L24.861 30.4216L23.6716 31.611L26.5 34.4395ZM27.6895 33.25L30.5179 30.4216L14.3284 14.2321L11.5 17.0605L8.67157 19.889L24.861 36.0784L27.6895 33.25ZM11.5 17.0605L14.3284 14.2321C14.7965 14.7002 15.0605 15.3359 15.0605 16H11.0605H7.06055C7.06055 17.4598 7.6409 18.8583 8.67157 19.889L11.5 17.0605ZM11.0605 16H15.0605V11.5H11.0605H7.06055V16H11.0605ZM11.0605 11.5H15.0605C15.0605 12.8807 13.9413 14 12.5605 14V10V6C9.52298 6 7.06055 8.46243 7.06055 11.5H11.0605ZM12.5605 10V14H17.0605V10V6H12.5605V10ZM41.0605 16.6211L38.2321 13.7927L32.2321 19.7927L35.0605 22.6211L37.889 25.4495L43.889 19.4495L41.0605 16.6211ZM35.0605 22.6211L37.889 19.7927L31.2679 13.1716L28.4395 16L25.611 18.8284L32.2321 25.4495L35.0605 22.6211ZM28.4395 16L31.2679 18.8284L37.2679 12.8284L34.4395 10L31.611 7.17157L25.611 13.1716L28.4395 16ZM34.4395 10V14H41.0605V10V6H34.4395V10ZM41.0605 10H37.0605V16.6211H41.0605H45.0605V10H41.0605Z" fill="black" mask="url(#path-1-outside-1_1522_21306)"/>
</svg>
