<svg width="9" height="11" viewBox="0 0 9 11" fill="none" xmlns="http://www.w3.org/2000/svg">
<path d="M6.75 2.6001H2.25V4.58489C2.25 5.67439 2.84068 6.67825 3.79307 7.20736L4.5 7.6001L5.20693 7.20736C6.15932 6.67825 6.75 5.67439 6.75 4.58489V2.6001Z" fill="white"/>
<path d="M2.25 2.6001V4.58447C2.25 5.67397 2.84058 6.67841 3.79297 7.20752L4.5 7.6001L5.20703 7.20752C6.15942 6.67841 6.75 5.67397 6.75 4.58447V2.6001H2.25ZM8.4502 4.58447C8.4502 6.29136 7.52431 7.86491 6.03223 8.69385L4.5 9.54443L2.96777 8.69385C1.47569 7.86491 0.549805 6.29136 0.549805 4.58447V0.899902H8.4502V4.58447Z" fill="#010101"/>
</svg>
