<svg width="9" height="11" viewBox="0 0 9 11" fill="none" xmlns="http://www.w3.org/2000/svg">
<path d="M6.5 3H2.5V5.08726C2.5 6.12163 3.03286 7.08304 3.91 7.63125L4.5 8L5.09 7.63125C5.96714 7.08304 6.5 6.12163 6.5 5.08726V3Z" fill="white"/>
<path d="M2.5 3V5.08691C2.5 6.12126 3.03305 7.08264 3.91016 7.63086L4.5 8L5.08984 7.63086C5.96695 7.08264 6.5 6.12126 6.5 5.08691V3H2.5ZM8.5 5.08691C8.5 6.81074 7.6121 8.41342 6.15039 9.32715L4.5 10.3584L2.84961 9.32715C1.3879 8.41342 0.5 6.81073 0.5 5.08691V1H8.5V5.08691Z" fill="#010101"/>
</svg>
