<svg width="9" height="11" viewBox="0 0 9 11" fill="none" xmlns="http://www.w3.org/2000/svg">
<path d="M7 2.5H2V5.30143C2 6.35522 2.5529 7.33174 3.45651 7.87391L4.5 8.5L5.54349 7.87391C6.4471 7.33174 7 6.35522 7 5.30143V2.5Z" fill="white"/>
<path d="M2 2.5V5.30176L2.00684 5.49805C2.0709 6.47548 2.60909 7.36572 3.45605 7.87402L4.5 8.5L5.54395 7.87402C6.39091 7.36572 6.9291 6.47548 6.99316 5.49805L7 5.30176V2.5H2ZM9 5.30176C8.99988 7.05795 8.0782 8.68531 6.57227 9.58887L4.5 10.832L2.42773 9.58887C0.921801 8.68531 0.000115077 7.05795 0 5.30176V0.5H9V5.30176Z" fill="#010101"/>
</svg>
