<svg width="48" height="48" viewBox="0 0 48 48" fill="none" xmlns="http://www.w3.org/2000/svg">
<g clip-path="url(#clip0_2300_10490)">
<path d="M44.4229 2.57285L37.665 11.8756L45.9688 4.34042L46.7422 5.22421L41.1553 15.0113L47.3369 7.71445L46.2432 17.5553L41.4961 20.6314L43.6992 22.6432L41.1553 27.731L38.0342 28.3814L37.0215 30.5934H34.2031L32.8877 33.4547V37.9068L34.7959 41.7223L32.252 43.6305L29.708 42.359L30.9795 46.8102L28.9092 46.3521L27.1641 47.4469L26.1729 44.7105L24.3525 47.5152V48.0826L24.168 47.7984L23.9844 48.0826V47.5152L22.1641 44.7105L21.1729 47.4469L19.4277 46.3521L17.3574 46.8102L18.6289 42.359L16.085 43.6305L13.541 41.7223L15.4492 37.9068V33.4547L14.1338 30.5934H11.3154L10.3027 28.3814L7.18164 27.731L4.6377 22.6432L6.84082 20.6314L2.09375 17.5553L1 7.71445L7.18164 15.0113L1.59473 5.22421L2.36816 4.34042L10.6719 11.8756L3.91406 2.57285L5.27344 1.02011L16.7207 15.0113L13.541 18.191L16.7207 18.8268L19.9014 16.2838L17.3574 11.1959H16.085L13.541 8.01523H14.8135L15.4492 6.74374H19.9014L22.4443 9.92343L24.168 16.2437L25.8926 9.92343L28.4355 6.74374H32.8877L33.5234 8.01523H34.7959L32.252 11.1959H30.9795L28.4355 16.2838L31.6162 18.8268L34.7959 18.191L31.6162 15.0113L43.0635 1.02011L44.4229 2.57285ZM28.3594 4.92441H19.4551L18.1836 -0.163483H29.6309L28.3594 4.92441Z" fill="black"/>
</g>
<defs>
<clipPath id="clip0_2300_10490">
<rect width="48" height="48" fill="white"/>
</clipPath>
</defs>
</svg>
