<svg width="48" height="48" viewBox="0 0 48 48" fill="none" xmlns="http://www.w3.org/2000/svg">
<path d="M12.3938 3.60721C18.1636 10.2165 15.4211 17.0508 11.0705 20.4431C12.0636 23.1484 11.8694 26.1193 10.9397 28.6121C13.2972 30.3674 14.7478 33.0266 15.2961 35.6814C17.9545 36.8169 20.1118 38.9245 21.2805 41.1912C12.994 48.334 4.33882 42.7984 2.86546 38.5125C3.68374 37.7189 4.51377 37.0684 5.34593 36.5467C1.92523 33.861 0.564503 29.5894 1.12132 26.9754C1.9353 26.7856 2.71508 26.6654 3.46019 26.6072C0.0803765 21.9701 1.13134 16.0029 3.3557 13.6199C4.24395 13.9064 5.05083 14.2456 5.78148 14.6277C5.36299 8.98961 9.29011 4.49561 12.3938 3.60721ZM35.2698 3.60721C38.3735 4.49538 42.2997 8.98936 41.8811 14.6277C42.6119 14.2455 43.4193 13.9065 44.3078 13.6199C46.5323 16.0031 47.582 21.97 44.2014 26.6072C44.9472 26.6653 45.7274 26.7855 46.5422 26.9754C47.0991 29.5896 45.738 33.8611 42.3166 36.5467C43.149 37.0685 43.9796 37.7187 44.7981 38.5125C43.3248 42.7984 34.6695 48.334 26.383 41.1912C27.5516 38.9247 29.7084 36.817 32.3664 35.6814C32.9146 33.0271 34.3652 30.3675 36.7219 28.6121C35.7925 26.1196 35.5991 23.1481 36.592 20.4431C32.242 17.0505 29.5004 10.2161 35.2698 3.60721Z" fill="black"/>
</svg>
