<svg width="48" height="48" viewBox="0 0 48 48" fill="none" xmlns="http://www.w3.org/2000/svg">
<path d="M16 30C16 30 16 41.4286 11.4286 46H36.5714C32 41.4286 32 30 32 30H40L24 14L8 30H16Z" fill="black"/>
<path d="M25.5996 3.7998L25.6006 3.80078C25.6015 3.80193 25.6034 3.80387 25.6055 3.80664C25.6097 3.81232 25.6167 3.82174 25.626 3.83398C25.6445 3.85848 25.6731 3.89573 25.7109 3.94531C25.7868 4.04475 25.9004 4.19352 26.0498 4.38574C26.3488 4.77044 26.7898 5.33015 27.3506 6.02148C28.4728 7.40499 30.0719 9.31223 31.9775 11.4023C35.8228 15.6197 40.7886 20.4408 45.5293 23.2852L43.4707 26.7148C38.2116 23.5593 32.9271 18.3802 29.0225 14.0977C27.0534 11.938 25.4022 9.96992 24.2432 8.54102C24.1581 8.43617 24.0768 8.33333 23.9971 8.23438C23.9204 8.32914 23.8433 8.42823 23.7617 8.52832C22.6094 9.94288 20.9722 11.8824 19.0312 13.9824C15.1954 18.1327 10.0023 23.1007 4.93164 25.7695L3.06836 22.2305C7.49765 19.8993 12.3047 15.3672 16.0938 11.2676C17.9651 9.24283 19.5469 7.36958 20.6602 6.00293C21.2163 5.32024 21.6545 4.76504 21.9521 4.38281C22.1009 4.19173 22.2145 4.04333 22.29 3.94434C22.3277 3.89499 22.3566 3.85831 22.375 3.83398C22.3842 3.82182 22.3903 3.81227 22.3945 3.80664C22.3967 3.80383 22.3986 3.80193 22.3994 3.80078L22.4004 3.7998L24 1.66699L25.5996 3.7998Z" fill="black"/>
</svg>
